<?xml version="1.0" standalone="no"?>
<!DOCTYPE svg PUBLIC "-//W3C//DTD SVG 1.1//EN" "http://www.w3.org/Graphics/SVG/1.1/DTD/svg11.dtd" >
<svg xmlns="http://www.w3.org/2000/svg">
<metadata></metadata>
<defs>
<font id="filosofiaboldbold" horiz-adv-x="1211" >
<font-face units-per-em="2048" ascent="1638" descent="-410" />
<missing-glyph horiz-adv-x="375" />
<glyph horiz-adv-x="0" />
<glyph unicode="&#xd;" horiz-adv-x="375" />
<glyph unicode=" "  horiz-adv-x="375" />
<glyph unicode="&#x09;" horiz-adv-x="375" />
<glyph unicode="&#xa0;" horiz-adv-x="375" />
<glyph unicode="!" horiz-adv-x="640" d="M167 1200q0 61 42 104.5t102 43.5t104 -42.5t44 -105.5q-46 -130 -82 -309q-41 -205 -41 -512q0 -27 -25 -27q-26 0 -26 27q0 323 -36 510q-41 156 -82 311zM183 109q0 53 37 90.5t92 37.5t91.5 -36.5t36.5 -91.5t-35.5 -92t-92.5 -37q-55 0 -92 37.5t-37 91.5z" />
<glyph unicode="&#x22;" horiz-adv-x="935" d="M154 1220q0 61 35 94.5t89 33.5q53 0 90.5 -34t37.5 -94q-39 -104 -68 -198q-34 -109 -34 -216q0 -32 -26 -33q-26 0 -25 33q0 113 -31 215q-34 98 -68 199zM529 1220q0 61 35 94.5t90 33.5q53 0 90.5 -34t37.5 -94q-39 -104 -69 -198q-34 -109 -34 -216q0 -32 -25 -33 q-26 0 -26 33q0 113 -31 215q-34 98 -68 199z" />
<glyph unicode="#" horiz-adv-x="890" d="M51 664q0 20 12 33t27 13q5 0 48 -4.5t96 -4.5l49 282q-61 0 -87.5 -3.5t-45.5 -4.5q-19 0 -29 16t-10 30q0 20 12 33t27 13q24 -3 62.5 -6t84.5 -3l7 41q17 92 21 135t10 81t51 33q22 -3 32 -16t7 -32q-9 -27 -19 -75q-17 -77 -29 -140l-5 -27h212h8l7 41 q17 92 21.5 135t10.5 81t50 33q22 -3 32.5 -16t6.5 -32q-9 -27 -19 -75q-17 -77 -29 -140l-5 -27q65 0 90.5 2.5t46.5 6.5q39 0 39 -46t-39 -46q-24 2 -72 4t-78 2l-48 -280q67 0 92.5 3t45.5 6q39 0 39 -46t-39 -46q-26 3 -65 5.5t-87 2.5q-29 -213 -33 -233.5t-18 -30 t-34 -7.5q-20 3 -31.5 17t-7.5 31q9 36 17 70q15 67 32 153h-220q-14 -77 -21.5 -133t-12.5 -107q-3 -14 -17 -23.5t-34 -7.5q-20 3 -31.5 17t-8.5 31q14 53 27.5 111.5t22.5 111.5q-61 0 -87 -3t-45 -5q-19 0 -29 16t-10 30zM311 701h218l50 282h-209h-12z" />
<glyph unicode="$" horiz-adv-x="979" d="M114 338q0 113 111 113q34 0 61.5 -29t27.5 -57q0 -39 -20.5 -62t-47.5 -30q29 -43 81 -71t112 -35v360l-48 17q-128 34 -188 111t-60 188q0 116 93 198q84 73 203 92q0 99 -3.5 152t-5.5 92q0 39 46 40q46 0 46 -40q0 -7 -4 -89.5t-4 -149.5q113 0 198 -55.5t85 -140.5 q0 -51 -29 -83.5t-77 -32.5q-36 0 -63 27.5t-27 61.5q0 32 17 55t48 32q-27 32 -50 44q-41 24 -102 24v-334l56 -19q131 -34 202 -112t71 -201q0 -126 -99 -211q-92 -80 -230 -96v-25q0 -116 2.5 -154.5t5.5 -65.5q0 -19 -16 -29.5t-30 -10.5q-20 0 -33 12t-13 28 q3 29 6 87.5t3 132.5v22q-133 0 -232 82q-92 75 -93 162zM309 916q0 -61 37 -102q31 -32 93 -55v306q-65 -14 -97.5 -53t-32.5 -96zM514 167q67 0 113.5 43.5t46.5 115.5q0 73 -46 118q-38 36 -114 59v-336z" />
<glyph unicode="%" horiz-adv-x="1773" d="M111 952q0 171 97 282t237 111t237.5 -110.5t97.5 -282.5t-97.5 -281.5t-237.5 -109.5t-237 109.5t-97 281.5zM341 952q0 -183 25 -257t79 -74q51 0 78 75t27 256q0 179 -26.5 256t-78.5 77q-53 0 -78.5 -76t-25.5 -257zM570 31q24 46 46 94q29 60 48 104l348 822 q34 80 73 185q26 68 35.5 87.5t34.5 19.5q10 0 25 -7t21.5 -22.5t1.5 -30.5q-14 -26 -25 -51q-46 -94 -96 -210l-348 -822q-31 -73 -53 -135q-14 -36 -26 -72q-12 -22 -37 -22q-10 0 -24.5 6t-21.5 23t-2 31zM995 360q0 171 97.5 282t236.5 111q140 0 237.5 -110.5 t97.5 -282.5t-97.5 -281.5t-237.5 -109.5t-237 109.5t-97 281.5zM1225 360q0 -183 25 -257t79 -74q51 0 78 75t27 256q0 179 -26.5 256t-78.5 77q-53 0 -78.5 -76t-25.5 -257z" />
<glyph unicode="&#x26;" horiz-adv-x="1382" d="M125 365q0 116 78 212q65 79 179 142l-12 15q-63 84 -92 158t-29 146q0 114 97 208q108 102 262 102q169 0 256.5 -69t87.5 -190q0 -106 -82.5 -195.5t-222.5 -134.5l-5 -1l351 -473q56 118 57 259v41l-140 -1q-12 0 -21.5 9t-9.5 27q0 36 31 35q12 0 25 -1q67 -9 152 -9 q84 0 119.5 3.5t58.5 6.5q12 0 21 -9t9 -26q0 -36 -30 -36l-140 1v-41q0 -184 -82 -326l116 -155l116 2q12 0 21.5 -9.5t9.5 -26.5q0 -36 -31 -36q-3 0 -51 5t-91 5q-63 0 -110.5 -5t-56.5 -5q-24 0 -37.5 9.5t-44.5 43.5q-121 -80 -263 -80q-203 0 -339 95 q-157 109 -157 304zM375 382q0 -167 62.5 -252.5t200.5 -85.5q56 0 106 14.5t96 45.5l-396 531q-68 -87 -69 -253zM483 1101q0 -85 36 -161q24 -49 85 -133q118 38 157 121q26 55 26 178q0 85 -31 131q-36 55 -114 55q-80 0 -119.5 -51t-39.5 -140z" />
<glyph unicode="'" horiz-adv-x="559" d="M154 1220q0 61 35 94.5t89 33.5q53 0 90.5 -34t37.5 -94q-39 -104 -68 -198q-34 -109 -34 -216q0 -32 -26 -33q-26 0 -25 33q0 113 -31 215q-34 98 -68 199z" />
<glyph unicode="(" horiz-adv-x="733" d="M128 604q0 164 77 323q65 137 191 274q99 111 249 234q12 9 21 9q20 0 20 -26q0 -12 -10 -25q-73 -82 -130 -174q-75 -121 -119 -265q-55 -172 -55 -350q0 -177 55 -350q44 -142 121 -266q58 -93 128 -172q10 -10 10 -26q0 -24 -22 -24q-10 0 -17 7q-150 123 -249 232 q-128 140 -193 275q-77 159 -77 324z" />
<glyph unicode=")" horiz-adv-x="733" d="M48 -210q0 12 10 26q68 75 126 170q79 130 123 267q55 171 55 351q0 179 -53 348q-44 140 -121 267q-56 92 -130 174q-10 14 -10 25q0 26 22 26q7 0 19 -9q148 -123 247 -232q128 -142 193 -275q77 -158 77 -324q0 -164 -77 -322q-67 -137 -191 -275q-99 -109 -251 -234 q-9 -7 -19 -7q-20 0 -20 24z" />
<glyph unicode="*" horiz-adv-x="832" d="M89 857q0 65 53 94q27 14 51 13q44 0 77 -32l94 54l-94 55q-31 -31 -79 -31q-27 0 -51 14t-37.5 39.5t-13.5 54.5q0 26 14.5 50.5t40 38t54.5 13.5q26 0 49 -13q53 -29 53 -94q0 -10 -3 -28l94 -54v109q-38 10 -59 36.5t-21 65.5q0 44 30.5 75t74.5 31t75 -30.5t31 -75.5 q0 -38 -22 -65.5t-58 -36.5v-107l92 52q-3 17 -3 26q0 65 54 96q10 7 24 10t28 3q65 0 93 -53q7 -10 10.5 -23.5t3.5 -27.5q0 -65 -53 -94q-22 -12 -51 -12q-44 0 -79 31l-95 -55l95 -54q36 32 79 32q27 0 52 -14.5t38.5 -40t13.5 -54.5q0 -26 -14.5 -50.5t-40 -38 t-54.5 -13.5q-26 0 -51.5 14.5t-39 40t-13.5 56.5q0 7 3 23l-92 53v-107q38 -10 59 -36.5t21 -66.5q0 -44 -30.5 -74.5t-75.5 -30.5q-44 0 -74.5 30.5t-30.5 74.5q0 38 22 66t58 37v107l-94 -53q3 -17 3 -27q0 -61 -53 -94q-10 -7 -23.5 -10t-27.5 -3q-65 0 -94 53 q-7 10 -10 23.5t-3 27.5z" />
<glyph unicode="+" horiz-adv-x="938" d="M104 510q0 20 12 33t27 13q29 -3 88 -5.5t133 -2.5h71v72q0 114 -3.5 153t-4.5 67q0 39 46 39t46 -39q0 -2 -4.5 -64.5t-4.5 -155.5v-72h72q114 0 153.5 2.5t66.5 5.5q39 0 39 -46t-39 -46q-2 0 -64 4.5t-156 4.5h-72v-72q0 -116 2.5 -155t6.5 -65q0 -19 -16.5 -29 t-29.5 -10q-20 0 -33 12t-13 27q3 29 5.5 88t2.5 132v72h-71q-118 0 -156.5 -3.5t-64.5 -5.5q-19 0 -29 16.5t-10 29.5z" />
<glyph unicode="," horiz-adv-x="564" d="M138 101q0 56 34.5 92t98.5 36q73 0 118 -53q39 -46 39 -115q0 -77 -29 -146.5t-109 -172.5q-10 -12 -25 -12q-22 0 -23 23q0 15 12 32q48 67 72 132.5t24 116.5q0 29 -7 48q0 -39 -27.5 -65t-68.5 -26q-43 0 -76 33.5t-33 76.5z" />
<glyph unicode="-" horiz-adv-x="960" d="M171 510q0 20 12 33t27 13q29 -3 88 -5.5t132 -2.5h101q114 0 153.5 2.5t66.5 5.5q39 0 39 -46t-39 -46q-2 0 -64 4.5t-156 4.5h-101q-118 0 -156 -3.5t-64 -5.5q-19 0 -29 16.5t-10 29.5z" />
<glyph unicode="." horiz-adv-x="564" d="M154 109q0 53 37 90.5t92 37.5t91.5 -36.5t36.5 -91.5t-35.5 -92t-92.5 -37q-55 0 -92 37.5t-37 91.5z" />
<glyph unicode="/" horiz-adv-x="711" d="M39 31q24 46 46 94q29 60 48 104l348 822q34 80 74 185q25 68 32 83q12 24 38 24q10 0 24.5 -7t21.5 -22t1 -31q-14 -26 -25 -51q-46 -94 -96 -210l-348 -822q-31 -73 -53 -135q-14 -36 -25 -72q-12 -22 -38 -22q-10 0 -24.5 6t-21.5 23t-2 31z" />
<glyph unicode="0" horiz-adv-x="1102" d="M116 401q0 181 127 308t308 127t308 -127t127 -308t-127 -308t-308 -127t-308 127t-127 308zM287 401q0 -111 76.5 -187.5t187.5 -76.5t188 76.5t77 187.5t-77 188t-188 77t-187.5 -77t-76.5 -188z" />
<glyph unicode="1" horiz-adv-x="861" d="M145 29q0 36 31 36l131 -2v676q-68 0 -91 -1.5t-40 -3.5q-12 0 -21.5 9.5t-9.5 26.5q0 36 31 36l217 -4q27 0 58.5 2.5t72.5 6.5q12 0 21.5 -9.5t9.5 -26.5v-712l131 2q12 0 21.5 -9.5t9.5 -26.5q0 -36 -31 -36q-14 0 -27 2q-70 9 -173 8h-111q-128 0 -157 -3t-42 -7 q-12 0 -21.5 9.5t-9.5 26.5z" />
<glyph unicode="2" horiz-adv-x="989" d="M75 31q0 17 17 29l256 177q125 87 179 191q39 75 40 156q0 87 -40 133q-44 53 -140 53q-58 0 -106.5 -25t-70.5 -61q34 0 60.5 -31.5t26.5 -73.5q0 -44 -32.5 -77t-76.5 -33q-48 0 -79.5 37t-31.5 95q0 102 110 168.5t258 66.5q203 0 299.5 -61.5t96.5 -172.5 q0 -96 -104 -186q-68 -58 -252 -163l-36 -21l295 4q26 0 52.5 2.5t61.5 5.5q12 0 21.5 -9.5t9.5 -26.5q0 -14 -12 -67.5t-22 -102t-18 -119.5t-8 -96q0 -31 -32 -31q-17 0 -25.5 8.5t-8.5 22.5q0 58 17 141q2 14 8 36h-679q-17 0 -25.5 8.5t-8.5 22.5z" />
<glyph unicode="3" horiz-adv-x="994" d="M60 220q0 60 30.5 96t80.5 36q44 0 76.5 -32.5t32.5 -77.5q0 -41 -25.5 -71.5t-66.5 -37.5q36 -49 88.5 -75t138.5 -26q116 0 155 72t39 254q0 167 -54.5 246.5t-158.5 79.5q-85 0 -116 -3t-53 -5q-38 0 -38 43q0 19 12 30.5t26 11.5q24 -3 69 -5.5t100 -2.5q94 0 131 71 q31 60 31 191q0 155 -29 207q-34 60 -133 60q-116 0 -155 -82q36 -3 63 -35.5t27 -73.5q0 -44 -32.5 -77t-76.5 -33q-48 0 -79.5 37t-31.5 95q0 99 93 167t216 68q183 0 288 -75q116 -82 116 -240q0 -99 -79 -187t-202 -124q131 -32 227 -126q106 -104 106 -238 q0 -189 -130 -293q-123 -99 -331 -99q-145 0 -250 74t-105 180z" />
<glyph unicode="4" horiz-adv-x="1163" d="M44 24q0 9 9 20l643 867q27 39 48 40q14 0 21.5 -13t7.5 -44v-397v-422h220l-1 140q0 12 9 21.5t26 9.5q36 0 36 -31q0 -12 -1 -26q-9 -67 -9 -151t3.5 -120t6.5 -58q0 -12 -9.5 -21.5t-26.5 -9.5q-36 0 -35 31l1 140h-220v-449l132 2q12 0 21 -9.5t9 -26.5 q0 -36 -30 -36q-24 3 -89 6.5t-111 3.5h-111q-99 0 -138.5 -3t-61.5 -7q-12 0 -21 9.5t-9 26.5q0 36 30 36l132 -2v449h-442q-39 0 -40 24zM167 75h359v483z" />
<glyph unicode="5" horiz-adv-x="940" d="M63 -290q0 60 31 95.5t80 35.5q44 0 76.5 -32.5t32.5 -76.5q0 -43 -29.5 -76t-70.5 -33q27 -46 74.5 -74.5t126.5 -28.5q123 0 167.5 82t44.5 279q0 193 -49.5 276.5t-181.5 83.5q-67 0 -114 -17q-44 -22 -89 -43q-38 0 -37 43q0 32 52 54v464q0 60 52 60h391 q90 0 115.5 29t25.5 114q0 31 34 31q32 0 33 -31q0 -14 -9 -46q-27 -106 -32 -133q-17 -108 -26 -133q-27 -84 -131 -83l-377 3v-253q56 9 112 9q246 0 383 -145q114 -121 114 -283q0 -183 -129 -305t-349 -122q-130 0 -225.5 74t-95.5 182z" />
<glyph unicode="6" horiz-adv-x="1136" d="M125 500q0 263 223.5 539.5t477.5 315.5q20 3 32 -5.5t12 -21.5q0 -27 -42 -39q-147 -39 -249 -183q-125 -174 -173 -486q36 51 101 82.5t143 31.5q157 0 260 -97q111 -106 111 -287q0 -159 -125 -271.5t-297 -112.5q-191 0 -314 106q-160 138 -160 428zM391 401 q0 -200 46 -284.5t162 -84.5q92 0 126 82q29 68 29 238q0 169 -29.5 242t-108.5 73q-96 0 -160.5 -80t-64.5 -186z" />
<glyph unicode="7" horiz-adv-x="887" d="M61 343q10 63 19 134t9 114v189q0 36 30 36q15 0 54 -4.5t61 -4.5l553 -3l1 5q10 27 33 27q14 0 24 -8.5t10 -25.5q0 -10 -3 -17l-422 -860q-48 -97 -66.5 -156t-18.5 -117q0 -39 14.5 -70t46.5 -48q-5 20 -5 41q0 53 35 84.5t78 31.5q46 0 78.5 -32.5t32.5 -78.5 q0 -55 -48 -91.5t-108 -36.5q-75 0 -129 51q-60 56 -60 149q0 118 90 299l296 604h-512q-9 -44 -12 -72q-14 -90 -14 -140q0 -31 -34 -31q-32 0 -33 31z" />
<glyph unicode="8" horiz-adv-x="1126" d="M116 353q0 133 86 228t228 127q-121 29 -194.5 107.5t-73.5 196.5q0 152 115.5 244t285.5 92q171 0 286 -92t115 -244q0 -116 -72.5 -195.5t-195.5 -108.5q140 -32 227 -126t87 -229q0 -167 -130.5 -277t-316.5 -110q-188 0 -317.5 109t-129.5 278zM382 353 q0 -171 43 -246t138 -75q94 0 137.5 75t43.5 246q0 172 -42.5 245.5t-138.5 73.5t-138.5 -74t-42.5 -245zM404 1012q0 -150 36 -210t123 -60q85 0 122 60t37 210t-36 210t-123 60q-85 0 -122 -60t-37 -210z" />
<glyph unicode="9" horiz-adv-x="1136" d="M116 452q0 159 124.5 271.5t297.5 112.5q191 0 314 -106q160 -138 160 -428q0 -263 -223.5 -539.5t-477.5 -315.5q-20 -3 -32.5 5.5t-12.5 21.5q0 27 43 40q147 39 249 182q125 174 172 487q-36 -51 -100.5 -83t-143.5 -32q-157 0 -259 98q-111 106 -111 286zM382 451 q0 -169 30 -242.5t109 -73.5q96 0 160.5 80t64.5 186q0 200 -46 284.5t-162 84.5q-92 0 -124 -75t-32 -244z" />
<glyph unicode=":" horiz-adv-x="564" d="M154 109q0 53 37 90.5t92 37.5t91.5 -36.5t36.5 -91.5t-35.5 -92t-92.5 -37q-55 0 -92 37.5t-37 91.5zM154 546q0 53 37 90.5t92 37.5t91.5 -36.5t36.5 -91.5t-35.5 -92.5t-92.5 -37.5q-55 0 -92 38t-37 92z" />
<glyph unicode=";" horiz-adv-x="564" d="M138 101q0 56 34.5 92t98.5 36q73 0 118 -53q39 -46 39 -115q0 -77 -29 -146.5t-109 -172.5q-10 -12 -25 -12q-22 0 -23 23q0 15 12 32q48 67 72 132.5t24 116.5q0 29 -7 48q0 -39 -27.5 -65t-68.5 -26q-43 0 -76 33.5t-33 76.5zM142 546q0 53 37 90.5t92 37.5 t91.5 -36.5t36.5 -91.5t-35.5 -92.5t-92.5 -37.5q-55 0 -92 38t-37 92z" />
<glyph unicode="&#x3c;" horiz-adv-x="1024" d="M195 548q0 15 20 29l630 416q14 9 27 9q19 0 19 -17q0 -12 -15 -28l-357 -409l357 -408q19 -17 18 -32q0 -17 -18 -18q-10 0 -31 12l-630 417q-20 14 -20 29z" />
<glyph unicode="=" horiz-adv-x="938" d="M159 382q0 20 12 33t27 13q29 -3 88 -5.5t132 -2.5h101q114 0 153.5 2.5t66.5 5.5q39 0 39 -46t-39 -46q-2 0 -64 4.5t-156 4.5h-101q-118 0 -156 -3.5t-64 -5.5q-19 0 -29 16.5t-10 29.5zM159 638q0 20 12 33t27 13q29 -3 88 -5.5t132 -2.5h101q114 0 153.5 2.5 t66.5 5.5q39 0 39 -46t-39 -46q-2 0 -64 4.5t-156 4.5h-101q-118 0 -156 -3.5t-64 -5.5q-19 0 -29 16.5t-10 29.5z" />
<glyph unicode="&#x3e;" horiz-adv-x="1024" d="M130 108q0 15 18 32l357 408l-357 409q-15 14 -15 28q0 17 21 17q12 0 25 -9l630 -416q20 -14 20 -29t-20 -29l-630 -417q-17 -12 -31 -12q-19 0 -18 18z" />
<glyph unicode="?" horiz-adv-x="955" d="M140 1092q0 104 89.5 180t210.5 76q169 0 282.5 -84.5t113.5 -229.5q0 -143 -100 -249q-3 -3 -188 -154q-102 -84 -103 -163l4 -89q0 -27 -26 -27t-25 27q0 15 -19 121t-19 121q0 155 135 273t135 214q0 60 -38 107q-51 67 -150 67q-82 0 -131 -33q-39 -26 -60 -73 q48 0 87 -30t39 -86q0 -44 -32.5 -76.5t-78.5 -32.5q-55 0 -90.5 42.5t-35.5 98.5zM312 109q0 53 37.5 90.5t92.5 37.5t91.5 -36.5t36.5 -91.5t-36 -92t-92 -37q-55 0 -92.5 37.5t-37.5 91.5z" />
<glyph unicode="@" horiz-adv-x="1483" d="M75 608q0 305 217.5 522.5t523.5 217.5q254 0 421.5 -153.5t167.5 -402.5q0 -201 -125.5 -360t-265.5 -159q-72 0 -119 32.5t-57 76.5q-32 -51 -85 -83.5t-104 -32.5q-106 0 -160 75t-54 200q0 53 10 113q29 160 136 272.5t238 112.5q38 0 57 -10q10 -5 27 -24h186 l-94 -529q-5 -29 -5 -49q0 -77 73 -77q87 0 176 130q97 142 97 308q0 220 -146 354q-137 123 -342 123q-259 0 -418 -197q-148 -183 -148 -454q0 -261 122 -416q130 -164 369 -164q121 0 236.5 37t209.5 100q9 5 15 5q19 0 19 -22q0 -14 -11 -23q-109 -82 -239.5 -125.5 t-248.5 -43.5q-285 0 -482 185.5t-197 460.5zM630 474q0 -60 16 -91t55 -31q53 0 87 47q28 38 35 79l64 440q0 55 -63 55q-72 0 -116 -96q-32 -70 -59 -223q-2 -17 -10.5 -77t-8.5 -103z" />
<glyph unicode="A" d="M-84 29q0 36 31 36l120 -2h15l498 1266q10 22 36 23q26 0 34 -23l487 -1266l133 2q12 0 21 -9.5t9 -26.5q0 -36 -30 -36q-26 3 -93.5 6.5t-114.5 3.5h-139q-101 0 -142.5 -3t-65.5 -7q-12 0 -21.5 9.5t-9.5 26.5q0 36 31 36l137 -2l-133 350h-419l-138 -350h14l126 2 q12 0 21.5 -9.5t9.5 -26.5q0 -36 -31 -36q-22 3 -76 6.5t-96 3.5h-11q-111 0 -134.5 -3t-37.5 -7q-12 0 -21.5 9.5t-9.5 26.5zM329 488h360l-177 464z" />
<glyph unicode="B" horiz-adv-x="1245" d="M94 29q0 36 31 36l140 -2v1188l-140 -2q-12 0 -21.5 9.5t-9.5 26.5q0 36 31 36q26 -3 93 -6.5t115 -3.5h102l217 3q213 0 331 -90q109 -84 109 -224q0 -106 -73 -188q-67 -75 -164 -104q140 -26 231.5 -122t91.5 -229q0 -167 -115.5 -263.5t-333.5 -96.5 q-58 0 -132.5 1.5t-161.5 4.5h-102q-101 0 -143 -3t-65 -7q-12 0 -21.5 9.5t-9.5 26.5zM529 75h154q118 0 164.5 62.5t46.5 219.5q0 135 -58 213.5t-165 78.5h-142v-574zM529 724h58q111 0 162 54q60 65 60 222q0 131 -47 185t-163 54h-70v-515z" />
<glyph unicode="C" horiz-adv-x="1177" d="M89 657q0 299 181 500q172 191 404 191q109 0 188 -36q60 -27 123 -88q20 5 39 31.5t19 48.5q0 32 29 32q32 0 32 -30v-425q0 -32 -31 -33q-31 0 -30 33q0 167 -101.5 277t-250.5 110q-176 0 -243 -132t-67 -479q0 -346 67 -478.5t243 -132.5q148 0 250 110t102 277 q0 32 30 33q17 0 24 -9t7 -24v-424q0 -31 -32 -31q-29 0 -29 32q0 22 -17 46t-41 31q-63 -61 -123 -87q-77 -34 -188 -34q-234 0 -404 189q-181 201 -181 502z" />
<glyph unicode="D" horiz-adv-x="1433" d="M94 29q0 36 31 36l140 -2v1188l-140 -2q-12 0 -21.5 9.5t-9.5 26.5q0 36 31 36q26 -3 93 -6.5t115 -3.5h102q84 0 171 1.5t188 5.5q230 0 387 -181q164 -188 164 -480q0 -290 -161.5 -475t-389.5 -185q-44 0 -170.5 3t-188.5 3h-102q-101 0 -143 -3t-65 -7 q-12 0 -21.5 9.5t-9.5 26.5zM529 80q36 -2 107 -3.5t110 -1.5q154 0 227 126q80 140 80 456q0 319 -78 456q-72 126 -229 126q-92 0 -135 -1t-82 -4v-1154z" />
<glyph unicode="E" horiz-adv-x="1160" d="M94 29q0 36 31 36l140 -2v1188l-140 -2q-12 0 -21.5 9.5t-9.5 26.5q0 36 31 36q26 -3 93 -6.5t115 -3.5h53l541 3q26 0 52 2.5t62 6.5q12 0 21.5 -9.5t9.5 -26.5v-63q0 -70 2.5 -125t7.5 -123q0 -31 -32 -31q-17 0 -26 9t-9 22q0 130 -44 193q-49 70 -159 70h-283v-515 h133q160 0 161 157q0 31 27 30q27 0 27 -30q0 -3 -1.5 -77.5t-1.5 -117.5q0 -58 1 -106.5t2 -87.5q0 -31 -27 -31t-27 31q0 77 -42 117t-119 40h-133v-574h335q109 0 158 70q44 63 45 193q0 31 34 31q32 0 32 -31q0 -32 -1 -65q-9 -164 -9 -183v-63q0 -36 -31 -36 q-17 0 -36 2q-72 7 -78 7l-592 3h-53q-101 0 -143 -3t-65 -7q-12 0 -21.5 9.5t-9.5 26.5z" />
<glyph unicode="F" horiz-adv-x="1126" d="M94 29q0 36 31 36l140 -2v1188l-140 -2q-12 0 -21.5 9.5t-9.5 26.5q0 36 31 36q26 -3 93 -6.5t115 -3.5h155l473 3q26 0 52 2.5t62 6.5q12 0 21.5 -9.5t9.5 -26.5v-63q0 -70 2.5 -125t7.5 -123q0 -31 -32 -31q-17 0 -25.5 9t-8.5 22q0 130 -45 193q-49 70 -158 70h-318 v-515h167q160 0 161 157q0 31 27 30q27 0 27 -30q0 -3 -1.5 -77.5t-1.5 -117.5q0 -58 1 -106.5t2 -87.5q0 -31 -27 -31t-27 31q0 77 -42 117t-119 40h-167v-586l140 2q12 0 21.5 -9.5t9.5 -26.5q0 -36 -31 -36q-26 3 -93 6.5t-115 3.5h-128q-101 0 -143 -3t-65 -7 q-12 0 -21.5 9.5t-9.5 26.5z" />
<glyph unicode="G" horiz-adv-x="1297" d="M89 657q0 300 176 500q169 191 401 191q111 0 199 -42q67 -32 137 -99q24 10 41 34t17 54q0 32 29 33q32 0 32 -31v-416q0 -32 -30 -33q-31 0 -31 33q0 166 -112.5 276.5t-264.5 110.5q-174 0 -238 -130.5t-64 -480.5q0 -348 64 -479.5t238 -131.5q116 0 160 77.5 t44 294.5v27l-139 -1q-12 0 -21.5 9.5t-9.5 26.5q0 36 31 35q26 -3 93 -6.5t115 -3.5h128q101 0 141.5 3.5t66.5 6.5q12 0 21.5 -9t9.5 -26q0 -36 -31 -36l-140 1v-18q0 -215 -142 -342q-133 -119 -344 -119q-232 0 -400 189q-177 201 -177 502z" />
<glyph unicode="H" horiz-adv-x="1501" d="M94 29q0 36 31 36l140 -2v1188l-140 -2q-12 0 -21.5 9.5t-9.5 26.5q0 36 31 36q26 -3 93 -6.5t115 -3.5h128q101 0 141.5 3.5t66.5 6.5q12 0 21.5 -9.5t9.5 -26.5q0 -36 -31 -36l-140 2v-527h444v527l-140 -2q-12 0 -21.5 9.5t-9.5 26.5q0 36 31 36q26 -3 93 -6.5 t115 -3.5h128q101 0 142 3.5t66 6.5q12 0 21.5 -9.5t9.5 -26.5q0 -36 -31 -36l-140 2v-1188l140 2q12 0 21.5 -9.5t9.5 -26.5q0 -36 -31 -36q-26 3 -93 6.5t-115 3.5h-128q-101 0 -142.5 -3t-65.5 -7q-12 0 -21.5 9.5t-9.5 26.5q0 36 31 36l140 -2v586h-444v-586l140 2 q12 0 21.5 -9.5t9.5 -26.5q0 -36 -31 -36q-26 3 -93 6.5t-115 3.5h-128q-101 0 -143 -3t-65 -7q-12 0 -21.5 9.5t-9.5 26.5z" />
<glyph unicode="I" horiz-adv-x="793" d="M94 29q0 36 31 36l140 -2v1188l-140 -2q-12 0 -21.5 9.5t-9.5 26.5q0 36 31 36q26 -3 93 -6.5t115 -3.5h128q101 0 141.5 3.5t66.5 6.5q12 0 21.5 -9.5t9.5 -26.5q0 -36 -31 -36l-140 2v-1188l140 2q12 0 21.5 -9.5t9.5 -26.5q0 -36 -31 -36q-26 3 -93 6.5t-115 3.5h-128 q-101 0 -143 -3t-65 -7q-12 0 -21.5 9.5t-9.5 26.5z" />
<glyph unicode="J" horiz-adv-x="750" d="M-68 -140q0 53 29.5 86.5t77.5 33.5q44 0 75 -32.5t31 -77.5q0 -36 -21.5 -64t-58.5 -40q27 -29 75 -29q67 0 96 48t29 128v1338l-140 -2q-12 0 -21.5 9.5t-9.5 26.5q0 36 31 36q26 -3 93 -6.5t115 -3.5h128q101 0 141.5 3.5t66.5 6.5q12 0 21.5 -9.5t9.5 -26.5 q0 -36 -31 -36l-140 2v-1130q0 -215 -96.5 -326.5t-261.5 -111.5q-108 0 -178 61q-61 55 -61 116z" />
<glyph unicode="K" horiz-adv-x="1297" d="M94 29q0 36 31 36l140 -2v1188l-140 -2q-12 0 -21.5 9.5t-9.5 26.5q0 36 31 36q26 -3 93 -6.5t115 -3.5h128q101 0 141.5 3.5t66.5 6.5q12 0 21.5 -9.5t9.5 -26.5q0 -36 -31 -36l-140 2v-1188l140 2q12 0 21.5 -9.5t9.5 -26.5q0 -36 -31 -36q-26 3 -93 6.5t-115 3.5h-128 q-101 0 -143 -3t-65 -7q-12 0 -21.5 9.5t-9.5 26.5zM529 631v16l507 604l-125 -2q-12 0 -21 9.5t-9 26.5q0 36 30 36q20 -3 74 -6.5t99 -3.5h10q109 0 134 3.5t38 6.5q12 0 21.5 -9.5t9.5 -26.5q0 -36 -31 -36l-126 2h-7l-389 -466l487 -722l104 2q12 0 21 -9.5t9 -26.5 q0 -36 -30 -36q-26 3 -93.5 6.5t-115.5 3.5h-109q-101 0 -142.5 -3t-65.5 -7q-12 0 -21.5 9.5t-9.5 26.5q0 36 31 36l102 -2z" />
<glyph unicode="L" horiz-adv-x="1099" d="M94 29q0 36 31 36l140 -2v1188l-140 -2q-12 0 -21.5 9.5t-9.5 26.5q0 36 31 36q26 -3 93 -6.5t115 -3.5h128q101 0 141.5 3.5t66.5 6.5q12 0 21.5 -9.5t9.5 -26.5q0 -36 -31 -36l-140 2v-1176h318q109 0 158 70q44 63 45 193q0 31 34 31q32 0 32 -31q0 -32 -2 -65 q-8 -148 -8 -178v-5v-63q0 -36 -31 -36q-17 0 -36 2q-72 7 -78 7l-575 3h-53q-101 0 -143 -3t-65 -7q-12 0 -21.5 9.5t-9.5 26.5z" />
<glyph unicode="M" horiz-adv-x="1711" d="M94 29q0 36 31 36l140 -2v1188l-140 -2q-12 0 -21.5 9.5t-9.5 26.5q0 36 31 36q12 0 25 -2q60 -8 135 -8h17h181q20 0 29 -11q5 -5 20 -49l326 -898l342 898q7 22 8 31q9 29 34 29h137q101 0 142 3.5t66 6.5q12 0 21.5 -9.5t9.5 -26.5q0 -36 -31 -36l-140 2v-1188l140 2 q12 0 21.5 -9.5t9.5 -26.5q0 -36 -31 -36q-26 3 -93 6.5t-115 3.5h-111q-101 0 -142.5 -3t-65.5 -7q-12 0 -21.5 9.5t-9.5 26.5q0 36 31 36l140 -2v976l-401 -1054q-10 -22 -36 -23q-26 0 -34 23l-389 1065v-987l140 2q12 0 21 -9.5t9 -26.5q0 -36 -30 -36q-12 0 -26 2 q-60 8 -135 8h-17q-84 0 -119.5 -3t-57.5 -7q-12 0 -21.5 9.5t-9.5 26.5z" />
<glyph unicode="N" horiz-adv-x="1356" d="M60 29q0 36 30 36l140 -2v1188l-140 -2q-12 0 -21 9.5t-9 26.5q0 36 30 36q12 0 26 -2q60 -8 135 -8h17q183 3 205 3q20 0 35.5 -13.5t46.5 -61.5l496 -749v761l-140 -2q-12 0 -21 9.5t-9 26.5q0 36 30 36q12 0 26 -2q60 -8 135 -8h17q84 0 119.5 3.5t57.5 6.5 q12 0 21.5 -9.5t9.5 -26.5q0 -36 -31 -36l-140 2v-1220q0 -56 -29 -57q-20 0 -47 40l-745 1123v-1074l140 2q12 0 21.5 -9.5t9.5 -26.5q0 -36 -31 -36q-12 0 -25 2q-60 8 -135 8h-17q-84 0 -119.5 -3t-58.5 -7q-12 0 -21 9.5t-9 26.5z" />
<glyph unicode="O" horiz-adv-x="1399" d="M89 657q0 304 178 497.5t433 193.5q256 0 430 -189q181 -197 181 -502q0 -304 -178.5 -497.5t-432.5 -193.5q-256 0 -430 189q-181 196 -181 502zM381 657q0 -335 80 -478q75 -133 239 -133q166 0 239 131q80 142 80 480q0 335 -77.5 473t-241.5 138q-166 0 -239 -131 q-80 -142 -80 -480z" />
<glyph unicode="P" horiz-adv-x="1134" d="M94 29q0 36 31 36l140 -2v1188l-140 -2q-12 0 -21.5 9.5t-9.5 26.5q0 36 31 36q26 -3 93 -6.5t115 -3.5h102l234 3q218 0 337.5 -103t119.5 -279t-118.5 -281t-338.5 -105h-140v-483l140 2q12 0 21.5 -9.5t9.5 -26.5q0 -36 -31 -36q-26 3 -93 6.5t-115 3.5h-128 q-101 0 -143 -3t-65 -7q-12 0 -21.5 9.5t-9.5 26.5zM529 621h108q116 0 161 67.5t45 243.5q0 172 -45 239.5t-161 67.5h-108v-618z" />
<glyph unicode="Q" horiz-adv-x="1399" d="M89 657q0 304 178 497.5t433 193.5q256 0 430 -189q181 -196 181 -502q0 -265 -137.5 -449t-350.5 -228v-105q0 -162 46 -221q38 -48 124 -48q73 0 135 37q49 31 89 86q32 46 56 46q12 0 22.5 -10.5t10.5 -23.5q0 -14 -8 -30t-23 -32q-63 -68 -141.5 -107.5t-164.5 -39.5 q-183 0 -285 94q-109 101 -109 299v55q-213 46 -346 225q-140 188 -140 452zM381 657q0 -335 80 -478q75 -133 239 -133q166 0 239 131q80 142 80 480q0 335 -77.5 473t-241.5 138q-166 0 -239 -131q-80 -142 -80 -480z" />
<glyph unicode="R" horiz-adv-x="1262" d="M94 29q0 36 31 36l140 -2v1188l-140 -2q-12 0 -21.5 9.5t-9.5 26.5q0 36 31 36q26 -3 93 -6.5t115 -3.5h102l217 3q213 0 331 -90q109 -84 109 -224q0 -106 -72.5 -186t-178.5 -109q128 -31 207 -140q70 -99 70 -212q0 -63 -5 -138t-5 -94q0 -80 51 -80q65 0 65 60 q0 10 7.5 23t24.5 13q14 0 24 -10.5t10 -22.5q0 -56 -48.5 -90t-127.5 -34q-126 0 -196 88q-75 96 -75 285q0 145 -51 215q-60 80 -200 81h-63v-586l140 2q12 0 21.5 -9.5t9.5 -26.5q0 -36 -31 -36q-26 3 -93 6.5t-115 3.5h-128q-101 0 -143 -3t-65 -7q-12 0 -21.5 9.5 t-9.5 26.5zM529 724h58q111 0 162 54q60 65 60 222q0 131 -47 185t-163 54h-70v-515z" />
<glyph unicode="S" horiz-adv-x="1041" d="M96 939q0 201 136 314q115 95 267 95h3q85 0 153.5 -22t119.5 -61q17 0 34 15t17 36q0 32 29 32q32 0 32 -30v-335q0 -32 -30 -32q-31 0 -31 32q0 104 -73 184q-90 97 -244 98q-111 0 -180 -55q-76 -60 -76 -168q0 -80 52 -133.5t132 -68.5l201 -41q167 -34 260 -156 q78 -102 78 -228q0 -220 -140 -342q-124 -107 -313 -107h-4q-84 0 -165 30t-136 69q-22 0 -38 -18t-16 -49q0 -32 -29 -32q-32 0 -33 31v389q0 32 31 32t31 -32q0 -147 105 -239t258 -92q111 0 190 54q90 63 90 174q0 87 -63 144q-55 48 -152 75l-148 29q-179 34 -270 155 q-79 104 -78 253z" />
<glyph unicode="T" horiz-adv-x="1131" d="M17 976q0 32 2 65q8 148 8 178v5v63q0 36 31 36q17 0 62.5 -4.5t51.5 -4.5l302 -3h183l302 3q26 0 52.5 2.5t61.5 6.5q12 0 21.5 -9.5t9.5 -26.5v-63q0 -70 2.5 -125t7.5 -123q0 -31 -32 -31q-17 0 -25.5 9t-8.5 22q0 130 -44 193q-49 70 -159 70h-147v-1176l140 2 q12 0 21.5 -9.5t9.5 -26.5q0 -36 -31 -36q-26 3 -93 6.5t-115 3.5h-128q-101 0 -143 -3t-65 -7q-12 0 -21.5 9.5t-9.5 26.5q0 36 31 36l139 -2v1176h-146q-109 0 -156 -66.5t-47 -196.5q0 -31 -35 -31q-32 0 -32 31z" />
<glyph unicode="U" horiz-adv-x="1365" d="M51 1285q0 36 31 36q26 -3 93 -6.5t115 -3.5h128q101 0 142 3.5t66 6.5q12 0 21.5 -9.5t9.5 -26.5q0 -36 -31 -36l-140 2v-910q0 -138 77 -216.5t227 -78.5q155 0 236 102q70 89 70 233v870l-140 -2q-12 0 -21.5 9.5t-9.5 26.5q0 36 31 36q12 0 25 -2q60 -8 135 -8h17 q84 0 120 3.5t58 6.5q12 0 21 -9.5t9 -26.5q0 -36 -30 -36l-140 2v-870q0 -196 -115 -302q-121 -113 -360 -113q-217 0 -345.5 111.5t-128.5 303.5v870l-140 -2q-12 0 -21.5 9.5t-9.5 26.5z" />
<glyph unicode="V" d="M-84 1285q0 36 31 36q26 -3 93.5 -6.5t114.5 -3.5h139q101 0 141.5 3.5t66.5 6.5q12 0 21 -9.5t9 -26.5q0 -36 -30 -36l-137 2l340 -889l350 889h-14l-126 -2q-12 0 -21.5 9.5t-9.5 26.5q0 36 31 36q22 -3 75.5 -6.5t96.5 -3.5h10q111 0 135 3.5t38 6.5q12 0 21 -9.5 t9 -26.5q0 -36 -30 -36l-120 2h-15l-498 -1266q-10 -22 -36 -23q-26 0 -34 23l-487 1266l-133 -2q-12 0 -21.5 9.5t-9.5 26.5z" />
<glyph unicode="W" horiz-adv-x="1689" d="M-84 1285q0 36 31 36q26 -3 93.5 -6.5t114.5 -3.5h942q77 0 107 3.5t49 6.5q12 0 21 -9.5t9 -26.5q0 -36 -30 -36l-111 2h-7l-152 -386l196 -512l354 898l-123 -2q-12 0 -21.5 9.5t-9.5 26.5q0 36 31 36q20 -3 68.5 -6.5t86.5 -3.5h10q111 0 135 3.5t38 6.5q12 0 21 -9.5 t9 -26.5q0 -36 -30 -36l-120 2h-15l-499 -1266q-10 -22 -35 -23q-26 0 -35 23l-201 524l-206 -524q-10 -22 -36 -23q-26 0 -34 23l-487 1266l-133 -2q-12 0 -21.5 9.5t-9.5 26.5zM358 1251l343 -898l103 260l-246 638h-200zM836 1251l108 -282l111 282h-219z" />
<glyph unicode="X" horiz-adv-x="1128" d="M-48 29q0 36 31 36l119 -2h7l355 517l-334 671l-130 -2q-12 0 -21.5 9.5t-9.5 26.5q0 36 31 36q26 -3 93 -6.5t115 -3.5h135q101 0 142 3.5t66 6.5q12 0 21.5 -9.5t9.5 -26.5q0 -36 -31 -36l-128 2l212 -423l290 423h-9l-126 -2q-12 0 -21.5 9.5t-9.5 26.5q0 36 31 36 q22 -3 76 -6.5t97 -3.5h10q111 0 135 3.5t37 6.5q12 0 21.5 -9.5t9.5 -26.5q0 -36 -31 -36l-119 2h-7l-345 -503l343 -685l130 2q12 0 21.5 -9.5t9.5 -26.5q0 -36 -31 -36q-26 3 -93.5 6.5t-114.5 3.5h-137q-101 0 -142.5 -3t-65.5 -7q-12 0 -21.5 9.5t-9.5 26.5q0 36 31 36 l128 -2l-219 437l-300 -437h9l126 2q12 0 21.5 -9.5t9.5 -26.5q0 -36 -31 -36q-22 3 -76 6.5t-96 3.5h-11q-111 0 -134.5 -3t-37.5 -7q-12 0 -21.5 9.5t-9.5 26.5z" />
<glyph unicode="Y" horiz-adv-x="1061" d="M-90 1285q0 36 30 36q26 -3 93.5 -6.5t114.5 -3.5h140q101 0 142 3.5t67 6.5q12 0 21 -9.5t9 -26.5q0 -36 -30 -36l-130 2l270 -510l230 435q12 22 12 39q0 36 -32 36l-79 -2q-12 0 -21.5 9.5t-9.5 26.5q0 36 31 36q22 -3 76 -6.5t96 -3.5h11q111 0 134.5 3.5t37.5 6.5 q12 0 21.5 -9.5t9.5 -26.5q0 -36 -31 -36l-65 2q-65 0 -114 -92l-268 -504v-592l140 2q12 0 21.5 -9.5t9.5 -26.5q0 -36 -31 -36q-26 3 -93.5 6.5t-114.5 3.5h-128q-101 0 -143 -3t-66 -7q-12 0 -21 9.5t-9 26.5q0 36 30 36l140 -2v541l-343 647l-128 -2q-12 0 -21 9.5 t-9 26.5z" />
<glyph unicode="Z" horiz-adv-x="972" d="M36 976q0 32 2 65q8 148 8 178v5v63q0 36 31 36q17 0 62 -4.5t52 -4.5h538q31 0 64 1t71 3q31 0 45 -8t14 -20q0 -9 -6.5 -24t-11.5 -27l-564 -1164h337q108 0 158 75q44 67 45 188q0 31 34 31q32 0 32 -31q0 -32 -2 -65q-8 -148 -8 -178v-5v-63q0 -36 -31 -36 q-17 0 -36 2q-72 7 -78 7h-521q-55 0 -91.5 -2.5t-85.5 -7.5q-34 0 -42.5 8.5t-8.5 20.5q0 22 17 56l563 1164h-318q-108 0 -158 -75q-44 -67 -45 -188q0 -31 -34 -31q-32 0 -32 31z" />
<glyph unicode="[" horiz-adv-x="733" d="M196 -140q0 14 4.5 61.5t4.5 52.5v1260q0 24 -3.5 55.5t-5.5 58.5q0 12 9.5 21.5t26.5 9.5h121q138 0 184.5 2.5t97.5 7.5q31 0 31 -32q0 -17 -8.5 -25.5t-22.5 -8.5h-212v-1437h212q31 0 31 -34q0 -32 -31 -33q-19 0 -43 2q-116 9 -239 8h-121q-36 0 -36 31z" />
<glyph unicode="\" horiz-adv-x="711" d="M27 1283q-5 15 1 30t23 22.5t26 7.5q24 0 36 -24q15 -39 30 -83q26 -67 75 -185l349 -822q29 -68 59 -130l34 -68q7 -17 0.5 -32.5t-22 -21.5t-27.5 -6q-24 0 -36 22q-17 49 -34 99q-7 19 -44 108l-349 822q-48 113 -80 181q-20 39 -41 80z" />
<glyph unicode="]" horiz-adv-x="733" d="M68 -148q0 17 8.5 25.5t22.5 8.5h212v1437h-212q-31 0 -31 34q0 32 31 32q17 0 39 -1q109 -9 243 -9h121q36 0 36 -31q0 -14 -4.5 -61.5t-4.5 -52.5v-1260q0 -26 3 -52t6 -62q0 -12 -9.5 -21.5t-26.5 -9.5h-121q-133 0 -181 -2.5t-101 -7.5q-31 0 -31 33z" />
<glyph unicode="^" horiz-adv-x="993" d="M96 749q0 7 8 21l365 561q14 20 29 21q15 0 29 -21l366 -561q9 -14 8 -26q0 -17 -19 -17q-14 0 -27 12l-357 288l-358 -288q-14 -10 -26 -10q-19 0 -18 20z" />
<glyph unicode="_" horiz-adv-x="733" d="M-2 0h738v-90h-738v90z" />
<glyph unicode="`" horiz-adv-x="1059" d="M114 1381q0 34 19 54q26 32 72 33q31 0 54 -21q55 -77 120 -153q73 -87 165 -164q10 -10 11 -21q0 -10 -8.5 -20t-20.5 -10q-10 0 -19 6q-90 77 -188 134q-87 46 -172 92q-32 26 -33 70z" />
<glyph unicode="a" horiz-adv-x="904" d="M51 162q0 137 144 210q126 65 320 65v200q0 75 -25.5 105.5t-90.5 30.5q-92 0 -119 -44q55 -22 55 -92q0 -48 -32 -79.5t-79 -31.5q-48 0 -78 31.5t-30 79.5q0 89 90.5 144t192.5 55q193 0 278.5 -92t85.5 -299v-334q0 -53 22 -53q19 0 34 19q29 34 33 37q14 10 25 11 q17 0 34 -17q9 -12 9 -23q0 -29 -22 -44q-44 -34 -87 -48.5t-103 -14.5q-92 0 -136 34q-32 26 -53 84q-72 -65 -137.5 -93.5t-130.5 -28.5q-85 0 -142.5 49.5t-57.5 138.5zM323.5 114.5q24.5 -27.5 55.5 -27.5q26 0 59.5 17t76.5 58v215q-216 0 -216 -187q0 -48 24.5 -75.5z " />
<glyph unicode="b" horiz-adv-x="1083" d="M14 32q0 36 30 36q9 0 50 -2.5t82 -2.5v1188q-68 0 -91.5 -1.5t-40.5 -3.5q-12 0 -21 9.5t-9 26.5q0 36 30 36q3 0 50.5 -2t81.5 -2q113 0 152 2.5t65 6.5q12 0 21 -9.5t9 -26.5v-599q87 148 243 148q152 0 248 -120t96 -315t-95.5 -315t-248.5 -120q-72 0 -137 39 t-106 109v-87q0 -36 -30 -36q-39 3 -101 6t-116 3q-60 0 -87.5 -1t-44.5 -2q-12 0 -21 9t-9 26zM423 401q0 -166 70 -270q62 -93 145 -93h2q65 0 84.5 76.5t19.5 286.5q0 217 -18.5 290.5t-85.5 73.5q-84 0 -147 -93q-70 -104 -70 -271z" />
<glyph unicode="c" horiz-adv-x="853" d="M73 401q0 193 109.5 314t286.5 121q125 0 223 -62t98 -165q0 -60 -34 -97.5t-82 -37.5t-81 33.5t-33 79.5q0 43 29 77t63 34q-38 72 -142 72t-137 -79.5t-33 -289.5q0 -207 35 -286t137 -79q80 0 132 42.5t83 128.5q5 17 10 22q9 10 22 10q32 0 33 -31q0 -5 -2 -13 q-3 -14 -7 -24q-49 -113 -128 -162q-68 -43 -169 -43q-188 0 -300.5 119.5t-112.5 315.5z" />
<glyph unicode="d" horiz-adv-x="1083" d="M73 401q0 195 96 315t249 120q72 0 137 -39t105 -109v561q-68 0 -91 -1.5t-40 -3.5q-12 0 -21.5 9.5t-9.5 26.5q0 36 31 36q3 0 50 -2t81 -2q106 0 147 3t70 6q12 0 21.5 -9.5t9.5 -26.5v-1222q68 0 90.5 2t40.5 3q12 0 21.5 -9.5t9.5 -26.5q0 -36 -31 -35q-3 0 -50 1.5 t-81 1.5q-97 0 -141.5 -2.5t-75.5 -6.5q-12 0 -21.5 9.5t-9.5 26.5v87q-87 -148 -242 -148q-152 0 -248.5 120.5t-96.5 314.5zM340 401q0 -217 18.5 -290t85.5 -73q84 0 147 92q69 104 69 271q0 166 -69 270q-63 94 -147 94q-65 0 -84.5 -77t-19.5 -287z" />
<glyph unicode="e" horiz-adv-x="931" d="M73 401q0 207 135 326q123 109 295 109q162 0 260.5 -91t98.5 -231q0 -24 -2 -36h-519l-1 -77q0 -200 48.5 -283.5t152.5 -83.5q96 0 165 44.5t98 128.5q5 17 10 22q9 10 22 10q32 0 33 -31q0 -5 -2 -13q-3 -14 -7 -24q-48 -109 -152 -162q-85 -43 -193 -43 q-183 0 -305 107q-137 119 -137 328zM348 550h246q17 41 17 92q0 55 -27.5 91.5t-81.5 36.5q-65 0 -103.5 -53.5t-50.5 -166.5z" />
<glyph unicode="f" horiz-adv-x="682" d="M17 770q0 17 8.5 25.5t22.5 8.5q36 0 77 -1t88 -1v167q0 212 108.5 332.5t279.5 120.5q121 0 195 -63.5t74 -145.5q0 -58 -32 -95.5t-84 -37.5q-49 0 -83 34.5t-34 85.5q0 38 21 67.5t57 44.5q-15 20 -41.5 34t-67.5 14q-72 0 -108.5 -38.5t-36.5 -128.5v-391h36h29h24 h47t46 2q31 0 31 -34q0 -17 -8.5 -25.5t-22.5 -8.5l-182 3v-676l131 2q12 0 21.5 -9.5t9.5 -26.5q0 -36 -31 -36q-14 0 -27 2q-63 8 -152 8h-20h-111q-128 0 -157 -3t-43 -7q-12 0 -21.5 9.5t-9.5 26.5q0 36 31 36l131 -2v676l-165 -3q-31 0 -31 34z" />
<glyph unicode="g" horiz-adv-x="899" d="M36 -299q0 68 43.5 113.5t111.5 64.5q-63 19 -97 77t-34 119q0 92 53 150t129 69q-68 38 -111.5 102.5t-43.5 144.5q0 123 100 209t240 86q72 0 136.5 -24.5t117.5 -72.5q14 89 62.5 136t108.5 47q70 0 113.5 -42t43.5 -95q0 -46 -26.5 -77.5t-69.5 -31.5q-39 0 -68 27 t-29 67q0 49 41 80q-7 2 -19 2q-41 0 -68 -33q-32 -39 -33 -109q0 -19 9 -55q20 -85 20 -114q0 -123 -99.5 -209t-239.5 -86q-17 0 -56.5 4t-46.5 4q-65 0 -102.5 -18.5t-37.5 -61.5q0 -41 31 -56.5t109 -15.5h243q148 0 228 -83q75 -77 75 -205q0 -160 -138 -263 q-128 -94 -300 -94q-169 0 -278 62q-118 67 -118 182zM183 -285q0 -90 67 -142.5t182 -52.5q148 0 242 68t94 158q0 65 -45 89.5t-167 24.5h-288q-43 -17 -64 -57t-21 -88zM326 541q0 -131 18 -185t83 -54q63 0 81.5 55.5t18.5 183.5q0 131 -15 178q-20 61 -85 61 q-63 0 -82 -55.5t-19 -183.5z" />
<glyph unicode="h" horiz-adv-x="1133" d="M14 29q0 36 30 36l132 -2v1188q-68 0 -91.5 -1.5t-40.5 -3.5q-12 0 -21 9.5t-9 26.5q0 36 30 36q3 0 50.5 -2t81.5 -2q108 0 148.5 2.5t68.5 6.5q12 0 21 -9.5t9 -26.5v-683q34 90 113 157q87 75 184 75q130 0 195 -85q60 -80 60 -219v-469l131 2q12 0 21.5 -9.5 t9.5 -26.5q0 -36 -31 -36q-14 0 -27 2q-63 8 -153 8h-20h-59q-128 0 -157.5 -3t-42.5 -7q-12 0 -21.5 9.5t-9.5 26.5q0 36 31 36l80 -2v539q0 80 -16 108.5t-64 28.5q-63 0 -137 -101q-87 -118 -87 -268v-307l80 2q12 0 21.5 -9.5t9.5 -26.5q0 -36 -31 -36q-26 3 -72.5 6.5 t-75.5 3.5h-111q-101 0 -132.5 -2.5t-67.5 -7.5q-12 0 -21 9.5t-9 26.5z" />
<glyph unicode="i" horiz-adv-x="636" d="M51 29q0 36 31 36l131 -2v676q-68 0 -91 -1.5t-40 -3.5q-12 0 -21.5 9.5t-9.5 26.5q0 36 31 36q3 0 50 -2t81 -2q113 0 152 2.5t65 6.5q12 0 21.5 -9.5t9.5 -26.5v-712l131 2q12 0 21.5 -9.5t9.5 -26.5q0 -36 -31 -36q-14 0 -27 2q-63 8 -152 8h-20h-111q-128 0 -157 -3 t-43 -7q-12 0 -21.5 9.5t-9.5 26.5zM198 1137q0 58 40 99.5t98 41.5t100 -41.5t42 -99.5t-42 -100t-100 -42t-98 42t-40 100z" />
<glyph unicode="j" horiz-adv-x="597" d="M-137 -350q0 53 30 86.5t78 33.5q44 0 75 -32.5t31 -77.5q0 -36 -21.5 -64t-58.5 -40q27 -29 75 -29q67 0 95.5 48t28.5 128v1036q-68 0 -91 -1.5t-40 -3.5q-12 0 -21.5 9.5t-9.5 26.5q0 36 31 36q3 0 50 -2t81 -2q102 0 145 2.5t72 6.5q12 0 21.5 -9.5t9.5 -26.5v-864 q0 -217 -89 -327.5t-253 -110.5q-108 0 -177 61q-61 55 -62 116zM181 1137q0 58 40 99.5t98 41.5t100 -41.5t42 -99.5t-42 -100t-100 -42t-98 42t-40 100z" />
<glyph unicode="k" horiz-adv-x="1041" d="M14 29q0 36 30 36l132 -2v1188q-68 0 -91.5 -1.5t-40.5 -3.5q-12 0 -21 9.5t-9 26.5q0 36 30 36q3 0 50.5 -2t81.5 -2q102 0 145 2.5t72 6.5q12 0 21 -9.5t9 -26.5v-1224l80 2q12 0 21.5 -9.5t9.5 -26.5q0 -36 -31 -36q-26 3 -72.5 6.5t-75.5 3.5h-111q-128 0 -157 -3 t-43 -7q-12 0 -21 9.5t-9 26.5zM410 433l17 14l373 292h-20q-44 0 -73 -1.5t-33 -1.5q-12 0 -21.5 9t-9.5 26q0 36 31 36q22 -5 60.5 -8.5t113.5 -3.5h12q72 0 107 3.5t67 8.5q12 0 21.5 -9.5t9.5 -26.5q0 -36 -31 -35q-7 0 -44.5 1.5t-61.5 1.5h-32l-261 -203l380 -476 q31 0 55 1.5t29 1.5q12 0 21.5 -9.5t9.5 -26.5q0 -36 -31 -36q-26 5 -64 8.5t-110 3.5h-109q-70 0 -106 -3t-68 -9q-12 0 -21.5 9.5t-9.5 26.5q0 36 31 36q9 0 30 -1.5t43 -1.5z" />
<glyph unicode="l" horiz-adv-x="599" d="M14 29q0 36 30 36l132 -2v1188q-68 0 -91.5 -1.5t-40.5 -3.5q-12 0 -21 9.5t-9 26.5q0 36 30 36q3 0 50.5 -2t81.5 -2q101 0 143.5 2.5t73.5 6.5q12 0 21 -9.5t9 -26.5v-1224l132 2q12 0 21 -9.5t9 -26.5q0 -36 -30 -36q-14 0 -28 2q-63 8 -152 8h-20h-111 q-128 0 -157 -3t-43 -7q-12 0 -21 9.5t-9 26.5z" />
<glyph unicode="m" horiz-adv-x="1660" d="M51 29q0 36 31 36l131 -2v227v449q-68 0 -91 -1.5t-40 -3.5q-12 0 -21.5 9.5t-9.5 26.5q0 36 31 36q3 0 50 -2t81 -2q106 0 147 2.5t70 6.5q12 0 21.5 -9.5t9.5 -26.5v-171q36 96 97 157q75 75 169 75q114 0 175.5 -63t75.5 -174q46 106 102 164q72 73 168 73 q130 0 194 -85q60 -80 60 -219v-206v-263l131 2q12 0 21.5 -9.5t9.5 -26.5q0 -36 -31 -36q-14 0 -27 2q-63 8 -152 8h-20h-111q-60 0 -87.5 -3t-44.5 -7q-12 0 -21 9.5t-9 26.5q0 36 30 36l63 -2v227v360q0 39 -17 67.5t-49 28.5q-63 0 -135 -123t-72 -253v-307l63 2 q12 0 21.5 -9.5t9.5 -26.5q0 -36 -31 -36q-24 3 -64.5 6.5t-66.5 3.5h-111q-60 0 -87 -3t-44 -7q-12 0 -21.5 9.5t-9.5 26.5q0 36 31 36l63 -2v227v360q0 39 -17 67.5t-50 28.5q-63 0 -134.5 -123t-71.5 -253v-307l63 2q12 0 21.5 -9.5t9.5 -26.5q0 -36 -31 -36 q-22 3 -63 6.5t-68 3.5h-111q-128 0 -157 -3t-43 -7q-12 0 -21.5 9.5t-9.5 26.5z" />
<glyph unicode="n" horiz-adv-x="1170" d="M51 29q0 36 31 36l131 -2v676q-68 0 -91 -1.5t-40 -3.5q-12 0 -21.5 9.5t-9.5 26.5q0 36 31 36q3 0 50 -2t81 -2q106 0 147 2.5t70 6.5q12 0 21.5 -9.5t9.5 -26.5v-171q34 90 112 157q87 75 185 75q130 0 194 -85q60 -80 60 -219v-469l131 2q12 0 21.5 -9.5t9.5 -26.5 q0 -36 -31 -36q-14 0 -27 2q-63 8 -152 8h-20h-60q-128 0 -157 -3t-43 -7q-12 0 -21 9.5t-9 26.5q0 36 30 36l81 -2v539q0 80 -16.5 108.5t-64.5 28.5q-63 0 -136 -101q-87 -118 -87 -268v-307l80 2q12 0 21.5 -9.5t9.5 -26.5q0 -36 -31 -36q-2 0 -63.5 5t-84.5 5h-111 q-101 0 -132.5 -2.5t-67.5 -7.5q-12 0 -21.5 9.5t-9.5 26.5z" />
<glyph unicode="o" horiz-adv-x="989" d="M56 401q0 191 125.5 313t313.5 122q186 0 312.5 -121t126.5 -314q0 -191 -125.5 -313t-313.5 -122q-186 0 -312.5 121t-126.5 314zM323 401q0 -227 34 -298t138 -71t138 71t34 298t-34 298t-138 71t-138 -71t-34 -298z" />
<glyph unicode="p" horiz-adv-x="1083" d="M14 -483q0 36 30 36l132 -2v1188q-68 0 -91.5 -1.5t-40.5 -3.5q-12 0 -21 9.5t-9 26.5q0 36 30 36q3 0 50.5 -2t81.5 -2q106 0 147 2.5t70 6.5q12 0 21 -9.5t9 -26.5v-87q87 148 243 148q152 0 248 -120t96 -315t-95.5 -315t-248.5 -120q-72 0 -137 39t-106 109v-563 l132 2q12 0 21 -9.5t9 -26.5q0 -36 -30 -36q-14 0 -28 2q-63 8 -152 8h-20h-111q-128 0 -157 -3t-43 -7q-12 0 -21 9.5t-9 26.5zM423 401q0 -166 70 -270q62 -93 145 -93h2q65 0 84.5 76.5t19.5 286.5q0 217 -18.5 290.5t-85.5 73.5q-84 0 -147 -93q-70 -104 -70 -271z" />
<glyph unicode="q" horiz-adv-x="1066" d="M73 401q0 195 96 315t249 120q72 0 137 -39t105 -109v87q0 36 31 36q27 -2 83.5 -5.5t133.5 -3.5q39 0 71.5 1t59.5 3q12 0 21.5 -9.5t9.5 -26.5q0 -36 -31 -36q-9 0 -49.5 2.5t-81.5 2.5v-1188l131 2q12 0 21.5 -9.5t9.5 -26.5q0 -36 -31 -36q-14 0 -27 2q-63 8 -152 8 h-20h-111q-128 0 -157 -3t-43 -7q-12 0 -21.5 9.5t-9.5 26.5q0 36 31 36l131 -2v563q-87 -148 -242 -148q-152 0 -248.5 120.5t-96.5 314.5zM340 401q0 -217 18.5 -290t85.5 -73q84 0 147 92q69 104 69 271q0 166 -69 270q-63 94 -147 94q-65 0 -84.5 -77t-19.5 -287z" />
<glyph unicode="r" horiz-adv-x="843" d="M51 29q0 36 31 36l131 -2v676q-68 0 -91 -1.5t-40 -3.5q-12 0 -21.5 9.5t-9.5 26.5q0 36 31 36q3 0 50 -2t81 -2q108 0 149 2.5t68 6.5q12 0 21.5 -9.5t9.5 -26.5v-106q31 80 92 123.5t135 43.5q80 0 131 -44t51 -109q0 -61 -33 -100t-88 -39q-49 0 -84 35t-35 85 q0 27 12 52t30 38q-11 2 -22 2q-73 0 -123 -84q-66 -107 -66 -320v-6v-283l131 2q12 0 21.5 -9.5t9.5 -26.5q0 -36 -31 -36q-14 0 -27 2q-63 8 -152 8h-20h-111q-128 0 -157 -3t-43 -7q-12 0 -21.5 9.5t-9.5 26.5z" />
<glyph unicode="s" horiz-adv-x="793" d="M53 195q0 55 30.5 82t71.5 27q39 0 68.5 -29t29.5 -68q0 -65 -64 -91q32 -41 91.5 -60.5t125.5 -19.5q77 0 124 35t47 98q0 48 -50.5 81t-139.5 57l-87 24q-220 61 -220 254q0 126 104 195q89 58 215 58q118 0 202 -46q95 -52 95 -136q0 -57 -29.5 -85t-70.5 -28 q-39 0 -66 26.5t-27 65.5q0 29 13.5 50t39.5 35q-17 20 -59.5 35t-92.5 15q-158 0 -158 -119q0 -83 153 -124l101 -27q246 -65 246 -268q0 -119 -100 -193.5t-247 -74.5q-145 0 -245.5 70t-100.5 161z" />
<glyph unicode="t" horiz-adv-x="655" d="M-6.5 798.5q8.5 8.5 21.5 8.5q157 0 205 29q58 36 84 164q19 92 25 116q15 53 46 53q36 0 36 -78v-285l200 1q31 0 31 -34q0 -17 -8.5 -25.5t-22.5 -8.5l-200 3v-612q0 -84 50 -84q32 0 56 38q19 31 26 79.5t44 48.5q38 0 38 -43q0 -72 -58 -130q-68 -68 -183 -68 q-97 0 -155 55q-65 61 -65 172v544q-60 0 -93 -1.5t-56 -1.5q-30 0 -30 32q0 19 8.5 27.5z" />
<glyph unicode="u" horiz-adv-x="1085" d="M-3 770q0 36 30 36q3 0 50.5 -2t81.5 -2q108 0 148.5 2.5t67.5 6.5q12 0 21.5 -9.5t9.5 -26.5v-620q0 -39 17 -67t50 -28q63 0 134.5 122.5t71.5 252.5v304q-68 0 -91 -1.5t-40 -3.5q-12 0 -21.5 9.5t-9.5 26.5q0 36 31 36q3 0 50 -2t81 -2q114 0 152.5 2.5t64.5 6.5 q12 0 21.5 -9.5t9.5 -26.5v-664q0 -53 22 -53q19 0 34 19q29 34 32 37q14 10 26 11q17 0 34 -17q9 -12 9 -23q0 -29 -22 -44q-44 -34 -87 -48.5t-103 -14.5q-106 0 -149.5 44.5t-43.5 122.5v56q-36 -96 -97 -157q-75 -75 -169 -75q-130 0 -192 83t-62 221v466 q-68 0 -91.5 -1.5t-40.5 -3.5q-12 0 -21 9.5t-9 26.5z" />
<glyph unicode="v" horiz-adv-x="865" d="M-51 773q0 36 31 36q20 -3 71 -6.5t94 -3.5h116q80 0 112.5 3.5t53.5 6.5q12 0 21 -9.5t9 -26.5q0 -36 -30 -36l-86 2l185 -425l191 425l-96 -2q-12 0 -21 9.5t-9 26.5q0 36 30 36q19 -3 60 -6.5t72 -3.5q58 0 84.5 3.5t44.5 6.5q12 0 21.5 -9.5t9.5 -26.5q0 -36 -31 -36 l-92 2l-331 -737q-5 -15 -8 -19q-7 -9 -24 -9q-19 0 -26 9q-3 5 -8 19l-321 737l-92 -2q-12 0 -21.5 9.5t-9.5 26.5z" />
<glyph unicode="w" horiz-adv-x="1276" d="M-51 773q0 36 31 36q20 -3 71 -6.5t94 -3.5h99q80 0 112.5 3.5t53.5 6.5q12 0 21 -9.5t9 -26.5q0 -36 -30 -36l-86 2l178 -432l187 444q7 14 11 19q7 9 22 8q17 0 22 -5q3 -3 12 -22l183 -444l181 432l-96 -2q-12 0 -21.5 9.5t-9.5 26.5q0 36 31 36q19 -3 60 -6.5 t71 -3.5q58 0 84.5 3.5t45.5 6.5q12 0 21.5 -9.5t9.5 -26.5q0 -36 -31 -36l-92 2l-314 -737q-5 -15 -9 -19q-7 -9 -23 -9q-17 0 -23 6q-3 3 -12 22l-182 442l-188 -442q-5 -15 -9 -19q-7 -9 -23 -9q-19 0 -26 9q-3 5 -9 19l-303 737l-92 -2q-12 0 -21.5 9.5t-9.5 26.5z" />
<glyph unicode="x" horiz-adv-x="911" d="M-26 29q0 36 31 36l92 -2l256 283l-244 393l-92 -2q-12 0 -21.5 9.5t-9.5 26.5q0 36 31 36q22 -3 75 -6.5t91 -3.5h128q85 0 115.5 3.5t49.5 6.5q12 0 21.5 -9.5t9.5 -26.5q0 -36 -31 -36l-85 2l128 -208l188 208l-76 -2q-12 0 -21 9.5t-9 26.5q0 36 30 36q9 0 14 -2 q26 -8 98 -8h16q77 0 94 2.5t36 7.5q12 0 21.5 -9.5t9.5 -26.5q0 -36 -31 -36l-92 2l-241 -266l256 -410l93 2q12 0 21 -9.5t9 -26.5q0 -36 -30 -36q-9 3 -59.5 6.5t-106.5 3.5h-128q-123 0 -140 -3t-26 -7q-12 0 -21 9.5t-9 26.5q0 36 30 36l86 -2l-140 225l-203 -225l75 2 q12 0 21.5 -9.5t9.5 -26.5q0 -36 -31 -36q-9 0 -14 2q-26 8 -98 8h-16q-77 0 -95 -2.5t-35 -7.5q-12 0 -21.5 9.5t-9.5 26.5z" />
<glyph unicode="y" horiz-adv-x="822" d="M-130 -391q0 53 28.5 84.5t75.5 31.5q39 0 72 -28t33 -76q0 -65 -55 -92q17 -12 41 -12q61 0 112 63q61 75 154 283l62 139l-321 737l-92 -2q-12 0 -21.5 9.5t-9.5 26.5q0 36 31 36q20 -3 71 -6.5t94 -3.5h116q80 0 112.5 3.5t53.5 6.5q12 0 21 -9.5t9 -26.5 q0 -36 -30 -36l-86 2l186 -430l190 430l-96 -2q-12 0 -21 9.5t-9 26.5q0 36 30 36q19 -3 60 -6.5t72 -3.5q58 0 84.5 3.5t44.5 6.5q12 0 21.5 -9.5t9.5 -26.5q0 -36 -31 -36l-92 2l-392 -893q-94 -213 -170 -302.5t-170 -89.5q-84 0 -136 45t-52 110z" />
<glyph unicode="z" horiz-adv-x="778" d="M55 55l367 689h-117q-113 0 -148.5 -36t-35.5 -148q0 -31 -34 -31q-32 0 -32 31q0 10 4 68t4 92v57q0 35 29 35h2q17 0 62 -4t52 -4l481 -2q26 0 26 -20q0 -14 -12 -34l-367 -690h154q111 0 148.5 47t37.5 165q0 31 34 30q32 1 32 -30q0 -12 -5 -96t-5 -92v-56 q0 -36 -31 -36q-17 0 -35 1q-72 7 -79 7l-519 2q-25 0 -25 19q0 16 12 36z" />
<glyph unicode="{" horiz-adv-x="733" d="M63 606q0 25 34 25q87 0 130 64q55 80 55 283q0 131 63 223q48 70 152 134q90 49 182 100q10 5 19 5q15 0 15 -17t-13 -25q-119 -85 -153.5 -162t-34.5 -253q0 -210 -51 -287q-41 -61 -162 -90q119 -29 160 -89q53 -80 53 -288q0 -177 35 -256t153 -159q14 -10 13 -22 q0 -12 -10 -17t-24 1q-246 140 -268 159q-130 111 -129 299q0 200 -55 281q-43 65 -130 65q-34 0 -34 26z" />
<glyph unicode="|" horiz-adv-x="552" d="M236 0v1451h90v-1451h-90z" />
<glyph unicode="}" horiz-adv-x="733" d="M20 -208q0 12 14 22q116 80 152 159.5t36 255.5q0 210 51 286q41 61 162 91q-119 29 -160 89q-53 80 -53 288q0 179 -32.5 253.5t-155.5 161.5q-14 9 -14 25q0 17 18 17q7 0 17 -5q90 -49 182 -99q102 -61 152 -133q63 -90 63 -225q0 -200 55 -282q43 -65 130 -65 q34 0 34 -27q0 -24 -34 -24q-87 0 -130 -63q-55 -80 -55 -283q0 -147 -77 -243q-48 -60 -320 -215q-14 -7 -24 -1q-10 5 -11 17z" />
<glyph unicode="~" horiz-adv-x="899" d="M90 411q0 133 47 226q53 108 146 107q56 0 176 -73.5t169 -73.5q44 0 85 39.5t48 76t26 36.5t19 -24q0 -148 -41 -232q-51 -106 -164 -106q-49 0 -174 75.5t-162 75.5q-38 0 -79 -38.5t-53 -88.5q-5 -24 -25 -24q-17 0 -18 24z" />
<glyph unicode="&#xa1;" horiz-adv-x="640" d="M167 -384q44 130 81 322t37 499q0 27 26 27t25 -27q0 -323 38 -510q42 -156 85 -311q0 -60 -44.5 -104t-103.5 -44q-60 0 -102 43.5t-42 104.5zM183 707q0 55 37.5 92t91.5 37q53 0 90.5 -37t37.5 -92t-36.5 -91.5t-91.5 -36.5t-92 35.5t-37 92.5z" />
<glyph unicode="&#xa2;" horiz-adv-x="1006" d="M142 620q0 179 111.5 299t277.5 134v36q-9 261 -9 288q0 39 46 40q46 0 46 -40q0 -7 -4 -106t-4 -182v-36q114 0 198.5 -63t84.5 -162q0 -60 -32.5 -97.5t-79.5 -37.5q-48 0 -81.5 33t-33.5 80q0 41 26.5 72.5t64.5 39.5q-36 70 -140 70h-7v-734h8q80 0 132.5 43 t82.5 128q5 17 11 22q9 10 22 10q32 0 32 -30q0 -5 -1 -14q-3 -14 -7 -24q-46 -108 -121 -159q-68 -46 -159 -46v-112q0 -116 2.5 -154.5t5.5 -65.5q0 -19 -16 -29.5t-30 -10.5q-20 0 -33 12t-13 28q3 29 6 87.5t3 132.5v116q-171 19 -280 136.5t-109 295.5zM374 620 q0 -152 41 -237.5t116 -114.5v707q-75 -26 -116 -113t-41 -242z" />
<glyph unicode="&#xa3;" horiz-adv-x="1099" d="M51 29q0 36 31 36q80 0 111 34q39 43 63 183l72 407l-142 -3q-32 0 -24 34q2 15 13 24.5t23 9.5q31 0 66.5 -0.5t75.5 -0.5l24 138q38 215 160.5 336t287.5 121q128 0 200 -71q60 -60 60 -137q0 -58 -32.5 -95.5t-83.5 -37.5q-49 0 -83.5 34t-34.5 85q0 38 24 70.5 t63 45.5q-14 24 -43 41t-76 17q-60 0 -97.5 -37.5t-53.5 -124.5l-68 -385h36h32h29h26h22h57t42 1q31 0 26 -34q-9 -34 -38 -34l-244 3l-34 -194q-32 -184 -101.5 -280.5t-193.5 -151.5l575 114q84 17 118 72.5t34 190.5q0 31 34 31q32 0 32 -31q0 -32 -1 -65 q-9 -164 -9 -182v-166q0 -36 -31 -36q-12 0 -56 4.5t-58 4.5l-439 3h-155q-101 0 -142.5 -3t-65.5 -7q-12 0 -21.5 9.5t-9.5 26.5z" />
<glyph unicode="&#xa4;" horiz-adv-x="1024" d="M128 737l55 55l119 -121q90 72 205 71q116 0 205 -70l119 120l55 -55l-121 -119q72 -90 71 -205q0 -58 -18 -109t-53 -96l119 -119l-53 -55l-121 121q-85 -70 -203 -70q-114 0 -203 70l-121 -121l-53 55l119 119q-72 90 -72 205q0 116 70 205zM287 413q0 -90 64 -154 t156 -64q90 0 155 63t65 155q0 90 -65 155t-155 65t-155 -65t-65 -155z" />
<glyph unicode="&#xa5;" horiz-adv-x="1078" d="M-82 1285q0 36 31 36q26 -3 93 -6.5t115 -3.5h140q101 0 142 3.5t66 6.5q12 0 21.5 -9.5t9.5 -26.5q0 -36 -31 -36l-130 2l270 -510l270 510h-12l-126 -2q-12 0 -21.5 9.5t-9.5 26.5q0 36 31 36q22 -3 75.5 -6.5t96.5 -3.5h10q111 0 135 3.5t38 6.5q12 0 21 -9.5t9 -26.5 q0 -36 -30 -36l-120 2h-10l-318 -596v-29q116 0 155.5 2.5t66.5 6.5q39 0 39 -46t-39 -46q-2 0 -64 4t-156 4l-2 -145q116 0 155.5 2.5t66.5 6.5q39 0 39 -46t-39 -46q-2 0 -64 4t-156 4l-2 -268l140 2q12 0 21.5 -9.5t9.5 -26.5q0 -36 -31 -36q-26 3 -93 6.5t-115 3.5h-128 q-101 0 -142.5 -3t-65.5 -7q-12 0 -21.5 9.5t-9.5 26.5q0 36 31 36l140 -2v268q-116 0 -154.5 -3.5t-64.5 -4.5q-19 0 -29 16t-10 30q0 20 12 33t27 13q3 0 65.5 -4.5t153.5 -4.5v145q-116 0 -154.5 -3.5t-64.5 -4.5q-19 0 -29 16t-10 30q0 20 12 33t27 13q29 -3 84 -6 t123 -3l-331 625l-128 -2q-12 0 -21.5 9.5t-9.5 26.5z" />
<glyph unicode="&#xa6;" horiz-adv-x="431" d="M171 0v614h90v-614h-90zM171 836v615h90v-615h-90z" />
<glyph unicode="&#xa7;" horiz-adv-x="885" d="M87 666q0 55 27 104q22 41 72 85q-41 38 -59.5 91.5t-18.5 116.5q0 130 116 217q106 79 237 79q119 0 209.5 -55t90.5 -142q0 -51 -29 -83.5t-77 -32.5q-36 0 -63 27.5t-27 61.5q0 32 17 55t48 32q-27 32 -58 48q-43 20 -106 20q-99 0 -154.5 -40t-55.5 -113 q0 -65 60 -113q51 -41 128 -61l100 -31q121 -32 186 -108q60 -70 60 -165q0 -55 -25 -100.5t-74 -89.5q41 -38 60 -91.5t19 -116.5q0 -130 -116 -217q-106 -79 -238 -78q-119 0 -209.5 54.5t-90.5 141.5q0 51 29 83.5t77 32.5q36 0 63 -27t27 -62q0 -32 -17 -55t-48 -32 q17 -27 59 -47.5t105 -20.5q99 0 154.5 40t55.5 114q0 65 -60 112q-51 41 -128 62l-100 31q-121 32 -183.5 104.5t-62.5 168.5zM222 778q0 -80 58 -124q44 -34 165 -72l87 -27q36 -10 66 -23t52 -29l5 43q0 80 -58 125q-44 34 -165 71l-87 28q-36 10 -66 23t-52 28z" />
<glyph unicode="&#xa8;" horiz-adv-x="812" d="M118 1517q0 43 29.5 73t72.5 30t73 -30t30 -73q0 -44 -30 -74t-73 -30t-72.5 30t-29.5 74zM483 1517q0 43 30 73t74 30q43 0 72.5 -30t29.5 -73q0 -44 -29.5 -74t-72.5 -30q-44 0 -74 30t-30 74z" />
<glyph unicode="&#xa9;" horiz-adv-x="1483" d="M55 659q0 283 201 484.5t486 201.5t485.5 -200.5t200.5 -485.5t-199.5 -486.5t-486.5 -201.5q-285 0 -486 201.5t-201 486.5zM135 659q0 -253 177.5 -430.5t429.5 -177.5q251 0 428.5 177.5t177.5 430.5q0 251 -177.5 428.5t-428.5 177.5t-429 -177t-178 -429zM350 659 q0 189 114.5 312t277.5 123q77 0 135 -24q43 -17 87 -55q17 10 17 33q0 19 5 27q7 12 28 12q34 0 34 -37v-255q0 -39 -33 -39q-17 0 -25.5 8.5t-8.5 30.5q0 96 -64.5 164t-162.5 68q-111 0 -141.5 -76.5t-30.5 -291.5q0 -217 27 -285q34 -84 145 -84q96 0 161.5 67.5 t65.5 164.5q0 39 34 39q20 0 28 -11q5 -9 5 -28v-254q0 -17 -7 -27.5t-27 -10.5q-17 0 -25 13t-8 27q0 20 -17 34q-46 -41 -92 -60.5t-130 -19.5q-164 0 -278 121t-114 314z" />
<glyph unicode="&#xaa;" horiz-adv-x="810" d="M67 770q0 118 121 182q109 58 273 58v171q0 116 -106 116q-38 0 -54 -6t-35 -21q24 -12 36 -34.5t12 -49.5q0 -39 -27.5 -66.5t-66.5 -27.5t-66.5 27.5t-27.5 66.5q0 70 71 116t158 46q148 0 230 -58.5t82 -183.5v-393q0 -55 26 -54q17 0 28 21t15 25q12 9 20 8 q12 1 26 -13q5 -5 5 -16q0 -22 -16 -37q-24 -24 -62 -32.5t-71 -8.5q-140 0 -172 102q-56 -53 -113.5 -79.5t-108.5 -26.5q-75 0 -126 44.5t-51 123.5zM280 790q0 -90 70 -90q20 0 46 13t65 45v203q-121 0 -157 -48q-24 -32 -24 -123z" />
<glyph unicode="&#xab;" horiz-adv-x="1365" d="M195 548q0 15 20 29l630 416q15 10 27 11q17 0 17 -18q0 -15 -13 -29l-374 -409l374 -408q19 -20 18 -36q0 -14 -17 -14q-14 0 -32 12l-630 417q-20 14 -20 29zM630 548q0 15 20 29l528 314q19 10 29 10q17 0 17 -15q0 -12 -16 -31l-271 -307l271 -306q17 -19 17 -34 t-17 -15q-14 0 -30 12l-528 314q-20 14 -20 29z" />
<glyph unicode="&#xac;" horiz-adv-x="1167" d="M169 558q0 20 12 33t27 13q29 -3 88 -5.5t132 -2.5h432q53 0 64 -11t11 -64v-14q0 -116 2.5 -155.5t6.5 -64.5q0 -19 -16.5 -29.5t-29.5 -10.5q-20 0 -33 12t-13 28q3 29 5.5 87.5t2.5 132.5v14h-432q-118 0 -156 -3.5t-64 -5.5q-19 0 -29 16t-10 30z" />
<glyph unicode="&#xad;" horiz-adv-x="960" d="M171 510q0 20 12 33t27 13q29 -3 88 -5.5t132 -2.5h101q114 0 153.5 2.5t66.5 5.5q39 0 39 -46t-39 -46q-2 0 -64 4.5t-156 4.5h-101q-118 0 -156 -3.5t-64 -5.5q-19 0 -29 16.5t-10 29.5z" />
<glyph unicode="&#xae;" horiz-adv-x="1483" d="M55 659q0 283 201 484.5t486 201.5t485.5 -200.5t200.5 -485.5t-199.5 -486.5t-486.5 -201.5q-285 0 -486 201.5t-201 486.5zM135 659q0 -253 177.5 -430.5t429.5 -177.5q251 0 428.5 177.5t177.5 430.5q0 251 -177.5 428.5t-428.5 177.5t-429 -177t-178 -429zM350 288 q0 36 31 36l88 -1v675l-88 -1q-12 0 -21.5 9t-9.5 27q0 36 31 35q26 -3 86 -6.5t101 -3.5l169 5q159 0 238.5 -53t79.5 -138q0 -67 -57.5 -117t-137.5 -67q94 -24 144.5 -83t50.5 -136q0 -41 -2.5 -69t-4.5 -60q0 -53 37 -53q31 0 31 42q0 12 8.5 22.5t22.5 10.5 q32 0 32 -31q0 -43 -39 -68.5t-82 -25.5q-92 0 -142 43q-65 56 -64 189q0 109 -24 145t-98 36h-56v-327l114 1q12 0 21.5 -9.5t9.5 -26.5q0 -36 -31 -35q-14 0 -27 1q-70 9 -172 9h-9q-128 0 -157 -4.5t-42 -5.5q-12 0 -21.5 9t-9.5 26zM674 710h22q90 0 119.5 30.5 t29.5 126.5q0 80 -21 104q-26 31 -116 31h-34v-292z" />
<glyph unicode="&#xaf;" horiz-adv-x="677" d="M56 1338v60h476v-60h-476z" />
<glyph unicode="&#xb0;" horiz-adv-x="819" d="M101 1041q0 126 90.5 216.5t216.5 90.5t216.5 -90.5t90.5 -216.5t-90.5 -216.5t-216.5 -90.5t-216.5 90.5t-90.5 216.5zM193 1041q0 -90 63 -153.5t154 -63.5q90 0 153 63.5t63 153.5t-63 153.5t-153 63.5t-153.5 -63t-63.5 -154z" />
<glyph unicode="&#xb1;" horiz-adv-x="938" d="M108 38q0 20 11.5 33t27.5 13q29 -3 88 -6t132 -3h218q114 0 153.5 2.5t67.5 6.5q39 0 39 -46t-39 -47q-2 0 -64.5 4.5t-156.5 4.5h-218q-118 0 -156.5 -2.5t-63.5 -6.5q-19 0 -29 16.5t-10 30.5zM108 510q0 20 11.5 33t27.5 13q29 -3 88 -5.5t132 -2.5h72v72 q0 114 -3.5 153t-5.5 67q0 39 46 39t46 -39q0 -2 -4 -64.5t-4 -155.5v-72h71q114 0 153.5 2.5t67.5 5.5q39 0 39 -46t-39 -46q-2 0 -64.5 4.5t-156.5 4.5h-71v-72q0 -116 2.5 -155t5.5 -65q0 -19 -16 -29t-30 -10q-20 0 -33 12t-13 27q3 29 6 88t3 132v72h-72 q-118 0 -156.5 -3.5t-63.5 -5.5q-19 0 -29 16.5t-10 29.5z" />
<glyph unicode="&#xb2;" horiz-adv-x="752" d="M75 618q0 15 12 27l196 217q65 72 94 144.5t29 136.5q0 61 -28 100.5t-84 39.5q-94 0 -128 -54q29 0 49.5 -20.5t20.5 -51.5q0 -29 -20.5 -49.5t-51.5 -20.5t-55.5 23t-24.5 64q0 61 51 111q63 60 174 60q147 0 229 -41q99 -49 99 -155q0 -44 -50.5 -105t-159.5 -150 l-120 -97h280q9 24 12 39q12 48 12 91q0 27 31 27q29 0 29 -27q-10 -53 -18 -103.5t-8 -89.5v-120q0 -31 -27 -30l-103 7l-407 1q-32 0 -33 26z" />
<glyph unicode="&#xb3;" horiz-adv-x="735" d="M72 715q0 80 70 80q27 0 46.5 -19.5t19.5 -48.5q0 -20 -10 -35.5t-29 -24.5q17 -20 51 -36.5t79 -16.5q60 0 78.5 39.5t18.5 134.5q0 92 -21.5 131.5t-77.5 39.5q-41 0 -63 -2.5t-43 -4.5q-38 0 -37 34q0 36 37 36q2 0 32 -4t74 -4q38 0 52.5 35t14.5 101q0 80 -15.5 110 t-63.5 30q-26 0 -54 -12t-38 -25q46 -17 46 -63q0 -27 -19.5 -47t-45.5 -20q-29 0 -49.5 22t-20.5 62q0 55 66 96.5t147 41.5q126 0 195 -41q82 -49 82 -154q0 -48 -48.5 -93t-120.5 -69q85 -31 138 -78q63 -56 63 -122q0 -111 -95 -172q-85 -55 -215 -55q-92 0 -168 47 t-76 107z" />
<glyph unicode="&#xb4;" horiz-adv-x="593" d="M79 1285q0 10 10 19q92 77 164 162q60 77 121 155q26 20 58 21q42 0 68 -31q19 -20 19 -55q0 -44 -33 -69q-84 -41 -174 -93.5t-186 -132.5q-7 -7 -17 -7q-31 0 -30 31z" />
<glyph unicode="&#xb5;" horiz-adv-x="1085" d="M-3 -483q0 36 30 36l132 -2v1188q-68 0 -91.5 -1.5t-40.5 -3.5q-12 0 -21 9.5t-9 26.5q0 36 30 36q3 0 50.5 -2t81.5 -2q108 0 148.5 2.5t67.5 6.5q12 0 21.5 -9.5t9.5 -26.5v-620q0 -39 17 -67t50 -28q63 0 134.5 122.5t71.5 252.5v304q-68 0 -91 -1.5t-40 -3.5 q-12 0 -21.5 9.5t-9.5 26.5q0 36 31 36q3 0 50 -2t81 -2q114 0 152.5 2.5t64.5 6.5q12 0 21.5 -9.5t9.5 -26.5v-664q0 -53 22 -53q19 0 34 19q29 34 32 37q14 10 26 11q17 0 34 -17q9 -12 9 -23q0 -29 -22 -44q-44 -34 -87 -48.5t-103 -14.5q-106 0 -149.5 44.5t-43.5 122.5 v56q-36 -96 -97 -157q-75 -75 -169 -75h-7v-418l132 2q12 0 21 -9.5t9 -26.5q0 -36 -30 -36q-14 0 -28 2q-70 9 -172 8h-111q-128 0 -157 -3t-43 -7q-12 0 -21 9.5t-9 26.5z" />
<glyph unicode="&#xb6;" horiz-adv-x="1049" d="M67 -396q0 53 29 85.5t75 32.5q43 0 75 -29t32 -77q0 -68 -60 -96q15 -10 40 -10q99 0 146 155q60 193 60 654v302q-131 14 -220.5 112t-89.5 233q0 143 102 245.5t246 102.5h297l83 4q12 0 21.5 -9.5t9.5 -26.5q0 -36 -31 -36q-9 0 -49.5 2.5t-81.5 2.5v-773 q0 -536 -118.5 -780t-359.5 -244q-90 0 -148 42.5t-58 107.5zM396 -466q143 58 211.5 271.5t68.5 641.5v804h-137v-901q0 -353 -27 -529q-32 -208 -116 -287z" />
<glyph unicode="&#xb7;" horiz-adv-x="597" d="M137 512q0 53 37 90.5t92 37.5t91.5 -36.5t36.5 -91.5t-35.5 -92.5t-92.5 -37.5q-55 0 -92 37.5t-37 92.5z" />
<glyph unicode="&#xb8;" horiz-adv-x="571" d="M130 -449q0 20 37 31q89 24 142 70q60 51 60 118q0 130 -152 129q-14 0 -27 11t-13 34q0 10 2 15l43 210h66v-195q90 -10 158.5 -60.5t68.5 -125.5q0 -109 -107 -177q-87 -55 -241 -80q-38 -5 -37 20z" />
<glyph unicode="&#xb9;" horiz-adv-x="778" d="M109 1285q0 32 28 33q9 0 61.5 -2t79.5 -2q75 0 116 2t80 5q27 0 28 -31v-641l119 1q27 0 28 -32q0 -32 -28 -33q-12 0 -24 2q-61 9 -157 9h-100q-116 0 -142 -4.5t-38 -6.5q-12 0 -20.5 8.5t-8.5 24.5q0 32 29 32l118 -1v609q-65 0 -92 -2t-49 -3q-27 0 -28 32z" />
<glyph unicode="&#xba;" horiz-adv-x="911" d="M79 973q0 166 110 270.5t267 104.5q159 0 268 -104t109 -271q0 -166 -109.5 -271.5t-267.5 -105.5q-155 0 -266 105.5t-111 271.5zM309 973q0 -169 34 -242.5t113 -73.5t112.5 73.5t33.5 242.5q0 167 -34 240.5t-112 73.5q-77 0 -112 -73.5t-35 -240.5z" />
<glyph unicode="&#xbb;" horiz-adv-x="1365" d="M142 208q0 15 17 34l271 306l-271 307q-15 19 -16 31q0 15 17 15q14 0 29 -10l528 -314q20 -14 20 -29t-20 -29l-528 -314q-19 -12 -32 -12q-15 0 -15 15zM473 104q0 15 19 36l373 408l-373 409q-14 14 -14 29q0 17 19 18q10 0 25 -11l630 -416q20 -14 20 -29t-20 -29 l-630 -417q-19 -12 -34 -12t-15 14z" />
<glyph unicode="&#xbc;" horiz-adv-x="1739" d="M109 1285q0 32 28 33q9 0 61.5 -2t79.5 -2q75 0 116 2t80 5q27 0 28 -31v-641l119 1q27 0 28 -32q0 -32 -28 -33q-12 0 -24 2q-61 9 -157 9h-100q-116 0 -142 -4.5t-38 -6.5q-12 0 -20.5 8.5t-8.5 24.5q0 32 29 32l118 -1v609q-65 0 -92 -2t-49 -3q-27 0 -28 32zM553 31 q24 46 46 94q29 60 48 104l348 822q34 80 73 185q26 68 35.5 87.5t34.5 19.5q10 0 25 -7t21.5 -22.5t1.5 -30.5q-14 -26 -25 -51q-46 -94 -96 -210l-348 -822q-31 -73 -53 -135q-14 -36 -26 -72q-12 -22 -37 -22q-10 0 -25 6t-21.5 23t-1.5 31zM971 237q0 7 9 19l433 476 q20 27 43 27q31 0 31 -44v-442q48 0 70.5 1.5t45.5 5.5q36 0 35 -34q0 -36 -35 -36q-3 0 -39.5 2.5t-76.5 2.5v-159l119 2q27 0 27 -32t-27 -33q-10 0 -22 2q-56 9 -150 8h-106q-114 0 -137.5 -3t-35.5 -7q-27 0 -27 33q0 32 27 32l118 -2v159h-273q-29 0 -29 22zM1063 273 h210v230z" />
<glyph unicode="&#xbd;" horiz-adv-x="1739" d="M109 1285q0 32 28 33q9 0 61.5 -2t79.5 -2q75 0 116 2t80 5q27 0 28 -31v-641l119 1q27 0 28 -32q0 -32 -28 -33q-12 0 -24 2q-61 9 -157 9h-100q-116 0 -142 -4.5t-38 -6.5q-12 0 -20.5 8.5t-8.5 24.5q0 32 29 32l118 -1v609q-65 0 -92 -2t-49 -3q-27 0 -28 32zM553 31 q24 46 46 94q29 60 48 104l348 822q34 80 73 185q26 68 35.5 87.5t34.5 19.5q10 0 25 -7t21.5 -22.5t1.5 -30.5q-14 -26 -25 -51q-46 -94 -96 -210l-348 -822q-31 -73 -53 -135q-14 -36 -26 -72q-12 -22 -37 -22q-10 0 -25 6t-21.5 23t-1.5 31zM1062 26q0 15 11 27l197 217 q65 72 94 144t29 137q0 61 -28.5 100.5t-84.5 39.5q-94 0 -128 -54q29 0 49.5 -20.5t20.5 -51.5q0 -29 -20.5 -49.5t-51.5 -20.5t-55.5 23t-24.5 64q0 61 51 111q63 60 174 60q147 0 229 -41q99 -49 99 -156q0 -44 -50.5 -104.5t-159.5 -149.5l-119 -97h280q9 24 11 39 q12 48 12 91q0 27 31 27q29 0 29 -27q-10 -53 -17.5 -103.5t-7.5 -89.5v-120q0 -31 -28 -31l-102 7l-408 2q-32 0 -32 26z" />
<glyph unicode="&#xbe;" horiz-adv-x="1739" d="M72 715q0 80 70 80q27 0 46.5 -19.5t19.5 -48.5q0 -20 -10 -35.5t-29 -24.5q17 -20 51 -36.5t79 -16.5q60 0 78.5 39.5t18.5 134.5q0 92 -21.5 131.5t-77.5 39.5q-41 0 -63 -2.5t-43 -4.5q-38 0 -37 34q0 36 37 36q2 0 32 -4t74 -4q38 0 52.5 35t14.5 101q0 80 -15.5 110 t-63.5 30q-26 0 -54 -12t-38 -25q46 -17 46 -63q0 -27 -19.5 -47t-45.5 -20q-29 0 -49.5 22t-20.5 62q0 55 66 96.5t147 41.5q126 0 195 -41q82 -49 82 -154q0 -48 -48.5 -93t-120.5 -69q85 -31 138 -78q63 -56 63 -122q0 -111 -95 -172q-85 -55 -215 -55q-92 0 -168 47 t-76 107zM553 31q24 46 46 94q29 60 48 104l348 822q34 80 73 185q26 68 35.5 87.5t34.5 19.5q10 0 25 -7t21.5 -22.5t1.5 -30.5q-14 -26 -25 -51q-46 -94 -96 -210l-348 -822q-31 -73 -53 -135q-14 -36 -26 -72q-12 -22 -37 -22q-10 0 -25 6t-21.5 23t-1.5 31zM971 237 q0 7 9 19l433 476q20 27 43 27q31 0 31 -44v-442q48 0 70.5 1.5t45.5 5.5q36 0 35 -34q0 -36 -35 -36q-3 0 -39.5 2.5t-76.5 2.5v-159l119 2q27 0 27 -32t-27 -33q-10 0 -22 2q-56 9 -150 8h-106q-114 0 -137.5 -3t-35.5 -7q-27 0 -27 33q0 32 27 32l118 -2v159h-273 q-29 0 -29 22zM1063 273h210v230z" />
<glyph unicode="&#xbf;" horiz-adv-x="955" d="M133 -218q0 143 101 249q3 3 188 153q102 84 102 164l-3 89q0 27 25 27q26 0 26 -27q0 -15 18.5 -121t18.5 -121q0 -155 -134.5 -273t-134.5 -214q0 -60 37 -107q51 -67 150 -67q82 0 132 33q39 26 60 73q-48 0 -84 27q-43 32 -43 89q0 44 32.5 76.5t78.5 32.5 q55 0 90.5 -42.5t35.5 -98.5q0 -104 -89.5 -180t-210.5 -76q-169 0 -280 81q-116 87 -116 233zM399 707q0 55 36 92t92 37q55 0 92.5 -37t37.5 -92q0 -53 -37.5 -90.5t-92.5 -37.5t-91.5 36.5t-36.5 91.5z" />
<glyph unicode="&#xc0;" d="M-84 29q0 36 31 36l120 -2h15l498 1266q10 22 36 23q26 0 34 -23l487 -1266l133 2q12 0 21 -9.5t9 -26.5q0 -36 -30 -36q-26 3 -93.5 6.5t-114.5 3.5h-139q-101 0 -142.5 -3t-65.5 -7q-12 0 -21.5 9.5t-9.5 26.5q0 36 31 36l137 -2l-133 350h-419l-138 -350h14l126 2 q12 0 21.5 -9.5t9.5 -26.5q0 -36 -31 -36q-22 3 -76 6.5t-96 3.5h-11q-111 0 -134.5 -3t-37.5 -7q-12 0 -21.5 9.5t-9.5 26.5zM295 1738q0 34 19 54q26 32 72 33q31 0 54 -21q55 -77 120 -153q73 -87 165 -164q10 -10 11 -21q0 -10 -8.5 -20t-20.5 -10q-10 0 -19 6 q-90 77 -188 134q-87 46 -172 92q-32 26 -33 70zM329 488h360l-177 464z" />
<glyph unicode="&#xc1;" d="M-84 29q0 36 31 36l120 -2h15l498 1266q10 22 36 23q26 0 34 -23l487 -1266l133 2q12 0 21 -9.5t9 -26.5q0 -36 -30 -36q-26 3 -93.5 6.5t-114.5 3.5h-139q-101 0 -142.5 -3t-65.5 -7q-12 0 -21.5 9.5t-9.5 26.5q0 36 31 36l137 -2l-133 350h-419l-138 -350h14l126 2 q12 0 21.5 -9.5t9.5 -26.5q0 -36 -31 -36q-22 3 -76 6.5t-96 3.5h-11q-111 0 -134.5 -3t-37.5 -7q-12 0 -21.5 9.5t-9.5 26.5zM329 488h360l-177 464zM460 1464q0 10 10 19q92 77 164 162q60 77 121 155q26 20 58 21q42 0 68 -31q19 -20 19 -55q0 -44 -33 -69 q-84 -41 -174 -93.5t-186 -132.5q-7 -7 -17 -7q-31 0 -30 31z" />
<glyph unicode="&#xc2;" d="M-84 29q0 36 31 36l120 -2h15l498 1266q10 22 36 23q26 0 34 -23l487 -1266l133 2q12 0 21 -9.5t9 -26.5q0 -36 -30 -36q-26 3 -93.5 6.5t-114.5 3.5h-139q-101 0 -142.5 -3t-65.5 -7q-12 0 -21.5 9.5t-9.5 26.5q0 36 31 36l137 -2l-133 350h-419l-138 -350h14l126 2 q12 0 21.5 -9.5t9.5 -26.5q0 -36 -31 -36q-22 3 -76 6.5t-96 3.5h-11q-111 0 -134.5 -3t-37.5 -7q-12 0 -21.5 9.5t-9.5 26.5zM284 1456q0 9 5 14l271 293q26 26 43 26q19 0 42 -26l270 -293q12 -12 -3.5 -25.5t-30.5 -5.5l-278 178l-280 -178q-14 -9 -26.5 -2.5t-12.5 19.5 zM329 488h360l-177 464z" />
<glyph unicode="&#xc3;" d="M-84 29q0 36 31 36l120 -2h15l498 1266q10 22 36 23q26 0 34 -23l487 -1266l133 2q12 0 21 -9.5t9 -26.5q0 -36 -30 -36q-26 3 -93.5 6.5t-114.5 3.5h-139q-101 0 -142.5 -3t-65.5 -7q-12 0 -21.5 9.5t-9.5 26.5q0 36 31 36l137 -2l-133 350h-419l-138 -350h14l126 2 q12 0 21.5 -9.5t9.5 -26.5q0 -36 -31 -36q-22 3 -76 6.5t-96 3.5h-11q-111 0 -134.5 -3t-37.5 -7q-12 0 -21.5 9.5t-9.5 26.5zM297 1460q0 111 49 183.5t119 72.5q53 0 157.5 -72t150.5 -72q43 0 73.5 36t40.5 89q2 19 20 19q20 0 21 -19q0 -121 -49.5 -191t-131.5 -70 q-48 0 -156 72.5t-144 72.5t-67.5 -35t-43.5 -86q-3 -17 -22 -18q-17 0 -17 18zM329 488h360l-177 464z" />
<glyph unicode="&#xc4;" d="M-84 29q0 36 31 36l120 -2h15l498 1266q10 22 36 23q26 0 34 -23l487 -1266l133 2q12 0 21 -9.5t9 -26.5q0 -36 -30 -36q-26 3 -93.5 6.5t-114.5 3.5h-139q-101 0 -142.5 -3t-65.5 -7q-12 0 -21.5 9.5t-9.5 26.5q0 36 31 36l137 -2l-133 350h-419l-138 -350h14l126 2 q12 0 21.5 -9.5t9.5 -26.5q0 -36 -31 -36q-22 3 -76 6.5t-96 3.5h-11q-111 0 -134.5 -3t-37.5 -7q-12 0 -21.5 9.5t-9.5 26.5zM318 1536q0 43 29.5 73t72.5 30t73 -30t30 -73q0 -44 -30 -74t-73 -30t-72.5 30t-29.5 74zM329 488h360l-177 464zM683 1536q0 43 30 73t74 30 q43 0 72.5 -30t29.5 -73q0 -44 -29.5 -74t-72.5 -30q-44 0 -74 30t-30 74z" />
<glyph unicode="&#xc5;" d="M-84 29q0 36 31 36l120 -2h15l498 1266q10 22 36 23q26 0 34 -23l487 -1266l133 2q12 0 21 -9.5t9 -26.5q0 -36 -30 -36q-26 3 -93.5 6.5t-114.5 3.5h-139q-101 0 -142.5 -3t-65.5 -7q-12 0 -21.5 9.5t-9.5 26.5q0 36 31 36l137 -2l-133 350h-419l-138 -350h14l126 2 q12 0 21.5 -9.5t9.5 -26.5q0 -36 -31 -36q-22 3 -76 6.5t-96 3.5h-11q-111 0 -134.5 -3t-37.5 -7q-12 0 -21.5 9.5t-9.5 26.5zM329 488h360l-177 464zM405 1652q0 90 63 153.5t153 63.5q89 0 152.5 -63.5t63.5 -153.5t-61.5 -153.5t-154.5 -63.5q-90 0 -153 63t-63 154z M500 1652q0 -48 36 -84t85 -36t84.5 35t35.5 85q0 49 -34.5 85t-85.5 36q-49 0 -85 -36t-36 -85z" />
<glyph unicode="&#xc6;" horiz-adv-x="1655" d="M-84 29q0 36 31 36l120 -2h15l703 1214q12 20 26.5 27t50.5 7l560 3q26 0 52 2.5t62 6.5q12 0 21.5 -9.5t9.5 -26.5v-63q0 -70 2.5 -125t7.5 -123q0 -31 -32 -31q-17 0 -26 9t-9 22q0 130 -44 193q-49 70 -159 70h-283v-515h133q160 0 161 157q0 31 27 30q27 0 27 -30 q0 -3 -1.5 -77.5t-1.5 -117.5q0 -58 0.5 -106.5t2.5 -87.5q0 -31 -27 -31t-27 31q0 77 -42 117t-119 40h-133v-574h335q109 0 158 70q44 63 45 193q0 31 34 31q32 0 32 -31q0 -32 -2 -65q-9 -164 -8 -183v-63q0 -36 -31 -36q-17 0 -36 2q-72 7 -78 7l-645 3q-101 0 -143 -3 t-65 -7q-12 0 -21.5 9.5t-9.5 26.5q0 36 31 36l139 -2v350h-387l-203 -350h14l126 2q12 0 21.5 -9.5t9.5 -26.5q0 -36 -31 -36q-22 3 -76 6.5t-96 3.5h-18q-111 0 -134.5 -3t-37.5 -7q-12 0 -21.5 9.5t-9.5 26.5zM415 488h344v596z" />
<glyph unicode="&#xc7;" horiz-adv-x="1177" d="M89 657q0 299 181 500q172 191 404 191q109 0 188 -36q60 -27 123 -88q20 5 39 31.5t19 48.5q0 32 29 32q32 0 32 -30v-425q0 -32 -31 -33q-31 0 -30 33q0 167 -101.5 277t-250.5 110q-176 0 -243 -132t-67 -479q0 -346 67 -478.5t243 -132.5q148 0 250 110t102 277 q0 32 30 33q17 0 24 -9t7 -24v-424q0 -31 -32 -31q-29 0 -29 32q0 22 -17 46t-41 31q-63 -61 -123 -87q-77 -34 -188 -34l-2 -91q90 -10 158.5 -60.5t68.5 -125.5q0 -109 -107 -177q-87 -55 -241 -80q-38 -5 -37 20q0 20 37 31q89 24 142 70q60 51 60 118q0 130 -152 129 q-17 0 -29 14t-12 29q0 3 3 17l31 113q-210 34 -353 216q-152 193 -152 468z" />
<glyph unicode="&#xc8;" horiz-adv-x="1160" d="M94 29q0 36 31 36l140 -2v1188l-140 -2q-12 0 -21.5 9.5t-9.5 26.5q0 36 31 36q26 -3 93 -6.5t115 -3.5h53l541 3q26 0 52 2.5t62 6.5q12 0 21.5 -9.5t9.5 -26.5v-63q0 -70 2.5 -125t7.5 -123q0 -31 -32 -31q-17 0 -26 9t-9 22q0 130 -44 193q-49 70 -159 70h-283v-515 h133q160 0 161 157q0 31 27 30q27 0 27 -30q0 -3 -1.5 -77.5t-1.5 -117.5q0 -58 1 -106.5t2 -87.5q0 -31 -27 -31t-27 31q0 77 -42 117t-119 40h-133v-574h335q109 0 158 70q44 63 45 193q0 31 34 31q32 0 32 -31q0 -32 -1 -65q-9 -164 -9 -183v-63q0 -36 -31 -36 q-17 0 -36 2q-72 7 -78 7l-592 3h-53q-101 0 -143 -3t-65 -7q-12 0 -21.5 9.5t-9.5 26.5zM392 1738q0 34 19 54q26 32 72 33q31 0 54 -21q55 -77 120 -153q73 -87 165 -164q10 -10 11 -21q0 -10 -8.5 -20t-20.5 -10q-10 0 -19 6q-90 77 -188 134q-87 46 -172 92 q-32 26 -33 70z" />
<glyph unicode="&#xc9;" horiz-adv-x="1160" d="M94 29q0 36 31 36l140 -2v1188l-140 -2q-12 0 -21.5 9.5t-9.5 26.5q0 36 31 36q26 -3 93 -6.5t115 -3.5h53l541 3q26 0 52 2.5t62 6.5q12 0 21.5 -9.5t9.5 -26.5v-63q0 -70 2.5 -125t7.5 -123q0 -31 -32 -31q-17 0 -26 9t-9 22q0 130 -44 193q-49 70 -159 70h-283v-515 h133q160 0 161 157q0 31 27 30q27 0 27 -30q0 -3 -1.5 -77.5t-1.5 -117.5q0 -58 1 -106.5t2 -87.5q0 -31 -27 -31t-27 31q0 77 -42 117t-119 40h-133v-574h335q109 0 158 70q44 63 45 193q0 31 34 31q32 0 32 -31q0 -32 -1 -65q-9 -164 -9 -183v-63q0 -36 -31 -36 q-17 0 -36 2q-72 7 -78 7l-592 3h-53q-101 0 -143 -3t-65 -7q-12 0 -21.5 9.5t-9.5 26.5zM482 1466q0 10 10 19q92 77 164 162q60 77 121 155q26 20 58 21q42 0 68 -31q19 -20 19 -55q0 -44 -33 -69q-84 -41 -174 -93.5t-186 -132.5q-7 -7 -17 -7q-31 0 -30 31z" />
<glyph unicode="&#xca;" horiz-adv-x="1160" d="M94 29q0 36 31 36l140 -2v1188l-140 -2q-12 0 -21.5 9.5t-9.5 26.5q0 36 31 36q26 -3 93 -6.5t115 -3.5h53l541 3q26 0 52 2.5t62 6.5q12 0 21.5 -9.5t9.5 -26.5v-63q0 -70 2.5 -125t7.5 -123q0 -31 -32 -31q-17 0 -26 9t-9 22q0 130 -44 193q-49 70 -159 70h-283v-515 h133q160 0 161 157q0 31 27 30q27 0 27 -30q0 -3 -1.5 -77.5t-1.5 -117.5q0 -58 1 -106.5t2 -87.5q0 -31 -27 -31t-27 31q0 77 -42 117t-119 40h-133v-574h335q109 0 158 70q44 63 45 193q0 31 34 31q32 0 32 -31q0 -32 -1 -65q-9 -164 -9 -183v-63q0 -36 -31 -36 q-17 0 -36 2q-72 7 -78 7l-592 3h-53q-101 0 -143 -3t-65 -7q-12 0 -21.5 9.5t-9.5 26.5zM304 1456q0 9 5 14l271 293q26 26 43 26q19 0 42 -26l270 -293q12 -12 -3.5 -25.5t-30.5 -5.5l-278 178l-280 -178q-14 -9 -26.5 -2.5t-12.5 19.5z" />
<glyph unicode="&#xcb;" horiz-adv-x="1160" d="M94 29q0 36 31 36l140 -2v1188l-140 -2q-12 0 -21.5 9.5t-9.5 26.5q0 36 31 36q26 -3 93 -6.5t115 -3.5h53l541 3q26 0 52 2.5t62 6.5q12 0 21.5 -9.5t9.5 -26.5v-63q0 -70 2.5 -125t7.5 -123q0 -31 -32 -31q-17 0 -26 9t-9 22q0 130 -44 193q-49 70 -159 70h-283v-515 h133q160 0 161 157q0 31 27 30q27 0 27 -30q0 -3 -1.5 -77.5t-1.5 -117.5q0 -58 1 -106.5t2 -87.5q0 -31 -27 -31t-27 31q0 77 -42 117t-119 40h-133v-574h335q109 0 158 70q44 63 45 193q0 31 34 31q32 0 32 -31q0 -32 -1 -65q-9 -164 -9 -183v-63q0 -36 -31 -36 q-17 0 -36 2q-72 7 -78 7l-592 3h-53q-101 0 -143 -3t-65 -7q-12 0 -21.5 9.5t-9.5 26.5zM384 1536q0 43 29.5 73t72.5 30t73 -30t30 -73q0 -44 -30 -74t-73 -30t-72.5 30t-29.5 74zM749 1536q0 43 30 73t74 30q43 0 72.5 -30t29.5 -73q0 -44 -29.5 -74t-72.5 -30 q-44 0 -74 30t-30 74z" />
<glyph unicode="&#xcc;" horiz-adv-x="793" d="M94 29q0 36 31 36l140 -2v1188l-140 -2q-12 0 -21.5 9.5t-9.5 26.5q0 36 31 36q26 -3 93 -6.5t115 -3.5h128q101 0 141.5 3.5t66.5 6.5q12 0 21.5 -9.5t9.5 -26.5q0 -36 -31 -36l-140 2v-1188l140 2q12 0 21.5 -9.5t9.5 -26.5q0 -36 -31 -36q-26 3 -93 6.5t-115 3.5h-128 q-101 0 -143 -3t-65 -7q-12 0 -21.5 9.5t-9.5 26.5zM157 1738q0 34 19 54q26 32 72 33q31 0 54 -21q55 -77 120 -153q73 -87 165 -164q10 -10 11 -21q0 -10 -8.5 -20t-20.5 -10q-10 0 -19 6q-90 77 -188 134q-87 46 -172 92q-32 26 -33 70z" />
<glyph unicode="&#xcd;" horiz-adv-x="793" d="M94 29q0 36 31 36l140 -2v1188l-140 -2q-12 0 -21.5 9.5t-9.5 26.5q0 36 31 36q26 -3 93 -6.5t115 -3.5h128q101 0 141.5 3.5t66.5 6.5q12 0 21.5 -9.5t9.5 -26.5q0 -36 -31 -36l-140 2v-1188l140 2q12 0 21.5 -9.5t9.5 -26.5q0 -36 -31 -36q-26 3 -93 6.5t-115 3.5h-128 q-101 0 -143 -3t-65 -7q-12 0 -21.5 9.5t-9.5 26.5zM207 1464q0 10 10 19q92 77 164 162q60 77 121 155q26 20 58 21q42 0 68 -31q19 -20 19 -55q0 -44 -33 -69q-84 -41 -174 -93.5t-186 -132.5q-7 -7 -17 -7q-31 0 -30 31z" />
<glyph unicode="&#xce;" horiz-adv-x="793" d="M77 1456q0 9 5 14l271 293q26 26 43 26q19 0 42 -26l270 -293q12 -12 -3.5 -25.5t-30.5 -5.5l-278 178l-280 -178q-14 -9 -26.5 -2.5t-12.5 19.5zM94 29q0 36 31 36l140 -2v1188l-140 -2q-12 0 -21.5 9.5t-9.5 26.5q0 36 31 36q26 -3 93 -6.5t115 -3.5h128 q101 0 141.5 3.5t66.5 6.5q12 0 21.5 -9.5t9.5 -26.5q0 -36 -31 -36l-140 2v-1188l140 2q12 0 21.5 -9.5t9.5 -26.5q0 -36 -31 -36q-26 3 -93 6.5t-115 3.5h-128q-101 0 -143 -3t-65 -7q-12 0 -21.5 9.5t-9.5 26.5z" />
<glyph unicode="&#xcf;" horiz-adv-x="793" d="M94 29q0 36 31 36l140 -2v1188l-140 -2q-12 0 -21.5 9.5t-9.5 26.5q0 36 31 36q26 -3 93 -6.5t115 -3.5h128q101 0 141.5 3.5t66.5 6.5q12 0 21.5 -9.5t9.5 -26.5q0 -36 -31 -36l-140 2v-1188l140 2q12 0 21.5 -9.5t9.5 -26.5q0 -36 -31 -36q-26 3 -93 6.5t-115 3.5h-128 q-101 0 -143 -3t-65 -7q-12 0 -21.5 9.5t-9.5 26.5zM116 1602q0 43 29.5 73t72.5 30t73 -30t30 -73q0 -44 -30 -74t-73 -30t-72.5 30t-29.5 74zM481 1602q0 43 30 73t74 30q43 0 72.5 -30t29.5 -73q0 -44 -29.5 -74t-72.5 -30q-44 0 -74 30t-30 74z" />
<glyph unicode="&#xd0;" horiz-adv-x="1450" d="M41 683q0 20 12 33t27 13q14 0 55 -4.5t138 -4.5v531l-140 -2q-12 0 -21.5 9.5t-9.5 26.5q0 36 31 36q26 -3 93.5 -6.5t114.5 -3.5h103q84 0 170.5 1.5t187.5 5.5q230 0 388 -181q164 -188 163 -480q0 -290 -161 -475t-390 -185q-44 0 -170.5 3t-187.5 3h-103 q-101 0 -142.5 -3t-65.5 -7q-12 0 -21.5 9.5t-9.5 26.5q0 36 31 36l140 -2v582q-99 0 -134 -3.5t-59 -4.5q-19 0 -29 16t-10 30zM538 80q36 -2 106.5 -3.5t109.5 -1.5q154 0 227 126q80 140 81 456q0 319 -79 456q-72 126 -229 126q-92 0 -134.5 -1t-81.5 -4v-514 q96 0 129 2.5t57 6.5q39 0 39 -46t-39 -46q-15 0 -31 1q-63 7 -155 7v-565z" />
<glyph unicode="&#xd1;" horiz-adv-x="1356" d="M60 29q0 36 30 36l140 -2v1188l-140 -2q-12 0 -21 9.5t-9 26.5q0 36 30 36q12 0 26 -2q67 -9 152 -8q183 3 205 3q20 0 35.5 -13.5t46.5 -61.5l496 -749v761l-140 -2q-12 0 -21 9.5t-9 26.5q0 36 30 36q12 0 26 -2q67 -9 152 -8q84 0 119.5 3.5t57.5 6.5q12 0 21.5 -9.5 t9.5 -26.5q0 -36 -31 -36l-140 2v-1220q0 -56 -29 -57q-20 0 -47 40l-745 1123v-1074l140 2q12 0 21.5 -9.5t9.5 -26.5q0 -36 -31 -36q-12 0 -25 2q-67 9 -152 8q-84 0 -119.5 -3t-58.5 -7q-12 0 -21 9.5t-9 26.5zM390 1460q0 111 49 183.5t119 72.5q53 0 157.5 -72 t150.5 -72q43 0 73.5 36t40.5 89q2 19 20 19q20 0 21 -19q0 -121 -49.5 -191t-131.5 -70q-48 0 -156 72.5t-144 72.5t-67.5 -35t-43.5 -86q-3 -17 -22 -18q-17 0 -17 18z" />
<glyph unicode="&#xd2;" horiz-adv-x="1399" d="M89 657q0 304 178 497.5t433 193.5q256 0 430 -189q181 -197 181 -502q0 -304 -178.5 -497.5t-432.5 -193.5q-256 0 -430 189q-181 196 -181 502zM381 657q0 -335 80 -478q75 -133 239 -133q166 0 239 131q80 142 80 480q0 335 -77.5 473t-241.5 138q-166 0 -239 -131 q-80 -142 -80 -480zM438 1734q0 34 19 54q26 32 72 33q31 0 54 -21q55 -77 120 -153q73 -87 165 -164q10 -10 11 -21q0 -10 -8.5 -20t-20.5 -10q-10 0 -19 6q-90 77 -188 134q-87 46 -172 92q-32 26 -33 70z" />
<glyph unicode="&#xd3;" horiz-adv-x="1399" d="M89 657q0 304 178 497.5t433 193.5q256 0 430 -189q181 -197 181 -502q0 -304 -178.5 -497.5t-432.5 -193.5q-256 0 -430 189q-181 196 -181 502zM381 657q0 -335 80 -478q75 -133 239 -133q166 0 239 131q80 142 80 480q0 335 -77.5 473t-241.5 138q-166 0 -239 -131 q-80 -142 -80 -480zM489 1464q0 10 10 19q92 77 164 162q60 77 121 155q26 20 58 21q42 0 68 -31q19 -20 19 -55q0 -44 -33 -69q-84 -41 -174 -93.5t-186 -132.5q-7 -7 -17 -7q-31 0 -30 31z" />
<glyph unicode="&#xd4;" horiz-adv-x="1399" d="M89 657q0 304 178 497.5t433 193.5q256 0 430 -189q181 -197 181 -502q0 -304 -178.5 -497.5t-432.5 -193.5q-256 0 -430 189q-181 196 -181 502zM381 657q0 -335 80 -478q75 -133 239 -133q166 0 239 131q80 142 80 480q0 335 -77.5 473t-241.5 138q-166 0 -239 -131 q-80 -142 -80 -480zM383 1454q0 9 5 14l271 293q26 26 43 26q19 0 42 -26l270 -293q12 -12 -3.5 -25.5t-30.5 -5.5l-278 178l-280 -178q-14 -9 -26.5 -2.5t-12.5 19.5z" />
<glyph unicode="&#xd5;" horiz-adv-x="1399" d="M89 657q0 304 178 497.5t433 193.5q256 0 430 -189q181 -197 181 -502q0 -304 -178.5 -497.5t-432.5 -193.5q-256 0 -430 189q-181 196 -181 502zM381 657q0 -335 80 -478q75 -133 239 -133q166 0 239 131q80 142 80 480q0 335 -77.5 473t-241.5 138q-166 0 -239 -131 q-80 -142 -80 -480zM396 1460q0 111 49 183.5t119 72.5q53 0 157.5 -72t150.5 -72q43 0 73.5 36t40.5 89q2 19 20 19q20 0 21 -19q0 -121 -49.5 -191t-131.5 -70q-48 0 -156 72.5t-144 72.5t-67.5 -35t-43.5 -86q-3 -17 -22 -18q-17 0 -17 18z" />
<glyph unicode="&#xd6;" horiz-adv-x="1399" d="M89 657q0 304 178 497.5t433 193.5q256 0 430 -189q181 -197 181 -502q0 -304 -178.5 -497.5t-432.5 -193.5q-256 0 -430 189q-181 196 -181 502zM381 657q0 -335 80 -478q75 -133 239 -133q166 0 239 131q80 142 80 480q0 335 -77.5 473t-241.5 138q-166 0 -239 -131 q-80 -142 -80 -480zM412 1536q0 43 29.5 73t72.5 30t73 -30t30 -73q0 -44 -30 -74t-73 -30t-72.5 30t-29.5 74zM777 1536q0 43 30 73t74 30q43 0 72.5 -30t29.5 -73q0 -44 -29.5 -74t-72.5 -30q-44 0 -74 30t-30 74z" />
<glyph unicode="&#xd7;" horiz-adv-x="0" />
<glyph unicode="&#xd8;" horiz-adv-x="1399" d="M89 657q0 304 178 497.5t433 193.5q82 0 155 -20.5t142 -61.5l59 115q10 19 36 18q10 0 24 -5q24 -19 24 -41q0 -9 -5 -18l-73 -113q116 -92 182.5 -238t66.5 -327q0 -304 -178.5 -497.5t-432.5 -193.5q-169 0 -313 90q-26 -46 -36.5 -70t-19.5 -44q-14 -19 -36 -19 q-12 0 -30.5 10.5t-18.5 35.5q0 10 5 19l75 114q-111 94 -174 236t-63 319zM381 657q-1 -249 42 -387l507 880q-38 61 -95.5 89.5t-134.5 28.5q-166 0 -239 -131q-80 -142 -80 -480zM459 181q39 -72 97 -103.5t144 -31.5q166 0 239 131q80 142 80 480q-1 265 -50 408z" />
<glyph unicode="&#xd9;" horiz-adv-x="1365" d="M51 1285q0 36 31 36q26 -3 93 -6.5t115 -3.5h128q101 0 142 3.5t66 6.5q12 0 21.5 -9.5t9.5 -26.5q0 -36 -31 -36l-140 2v-910q0 -138 77 -216.5t227 -78.5q155 0 236 102q70 89 70 233v870l-140 -2q-12 0 -21.5 9.5t-9.5 26.5q0 36 31 36q12 0 25 -2q67 -9 152 -8 q84 0 120 3.5t58 6.5q12 0 21 -9.5t9 -26.5q0 -36 -30 -36l-140 2v-870q0 -196 -115 -302q-121 -113 -360 -113q-217 0 -345.5 111.5t-128.5 303.5v870l-140 -2q-12 0 -21.5 9.5t-9.5 26.5zM416 1738q0 34 19 54q26 32 72 33q31 0 54 -21q55 -77 120 -153q73 -87 165 -164 q10 -10 11 -21q0 -10 -8.5 -20t-20.5 -10q-10 0 -19 6q-90 77 -188 134q-87 46 -172 92q-32 26 -33 70z" />
<glyph unicode="&#xda;" horiz-adv-x="1365" d="M51 1285q0 36 31 36q26 -3 93 -6.5t115 -3.5h128q101 0 142 3.5t66 6.5q12 0 21.5 -9.5t9.5 -26.5q0 -36 -31 -36l-140 2v-910q0 -138 77 -216.5t227 -78.5q155 0 236 102q70 89 70 233v870l-140 -2q-12 0 -21.5 9.5t-9.5 26.5q0 36 31 36q12 0 25 -2q67 -9 152 -8 q84 0 120 3.5t58 6.5q12 0 21 -9.5t9 -26.5q0 -36 -30 -36l-140 2v-870q0 -196 -115 -302q-121 -113 -360 -113q-217 0 -345.5 111.5t-128.5 303.5v870l-140 -2q-12 0 -21.5 9.5t-9.5 26.5zM588 1464q0 10 10 19q92 77 164 162q60 77 121 155q26 20 58 21q42 0 68 -31 q19 -20 19 -55q0 -44 -33 -69q-84 -41 -174 -93.5t-186 -132.5q-7 -7 -17 -7q-31 0 -30 31z" />
<glyph unicode="&#xdb;" horiz-adv-x="1365" d="M51 1285q0 36 31 36q26 -3 93 -6.5t115 -3.5h128q101 0 142 3.5t66 6.5q12 0 21.5 -9.5t9.5 -26.5q0 -36 -31 -36l-140 2v-910q0 -138 77 -216.5t227 -78.5q155 0 236 102q70 89 70 233v870l-140 -2q-12 0 -21.5 9.5t-9.5 26.5q0 36 31 36q12 0 25 -2q67 -9 152 -8 q84 0 120 3.5t58 6.5q12 0 21 -9.5t9 -26.5q0 -36 -30 -36l-140 2v-870q0 -196 -115 -302q-121 -113 -360 -113q-217 0 -345.5 111.5t-128.5 303.5v870l-140 -2q-12 0 -21.5 9.5t-9.5 26.5zM453 1456q0 9 5 14l271 293q26 26 43 26q19 0 42 -26l270 -293q12 -12 -3.5 -25.5 t-30.5 -5.5l-278 178l-280 -178q-14 -9 -26.5 -2.5t-12.5 19.5z" />
<glyph unicode="&#xdc;" horiz-adv-x="1365" d="M51 1285q0 36 31 36q26 -3 93 -6.5t115 -3.5h128q101 0 142 3.5t66 6.5q12 0 21.5 -9.5t9.5 -26.5q0 -36 -31 -36l-140 2v-910q0 -138 77 -216.5t227 -78.5q155 0 236 102q70 89 70 233v870l-140 -2q-12 0 -21.5 9.5t-9.5 26.5q0 36 31 36q12 0 25 -2q67 -9 152 -8 q84 0 120 3.5t58 6.5q12 0 21 -9.5t9 -26.5q0 -36 -30 -36l-140 2v-870q0 -196 -115 -302q-121 -113 -360 -113q-217 0 -345.5 111.5t-128.5 303.5v870l-140 -2q-12 0 -21.5 9.5t-9.5 26.5zM483 1537q0 43 29.5 73t72.5 30t73 -30t30 -73q0 -44 -30 -74t-73 -30t-72.5 30 t-29.5 74zM848 1537q0 43 30 73t74 30q43 0 72.5 -30t29.5 -73q0 -44 -29.5 -74t-72.5 -30q-44 0 -74 30t-30 74z" />
<glyph unicode="&#xdd;" horiz-adv-x="1061" d="M-90 1285q0 36 30 36q26 -3 93.5 -6.5t114.5 -3.5h140q101 0 142 3.5t67 6.5q12 0 21 -9.5t9 -26.5q0 -36 -30 -36l-130 2l270 -510l230 435q12 22 12 39q0 36 -32 36l-79 -2q-12 0 -21.5 9.5t-9.5 26.5q0 36 31 36q22 -3 76 -6.5t96 -3.5h11q111 0 134.5 3.5t37.5 6.5 q12 0 21.5 -9.5t9.5 -26.5q0 -36 -31 -36l-65 2q-65 0 -114 -92l-268 -504v-592l140 2q12 0 21.5 -9.5t9.5 -26.5q0 -36 -31 -36q-26 3 -93.5 6.5t-114.5 3.5h-128q-101 0 -143 -3t-66 -7q-12 0 -21 9.5t-9 26.5q0 36 30 36l140 -2v541l-343 647l-128 -2q-12 0 -21 9.5 t-9 26.5zM453 1466q0 10 10 19q92 77 164 162q60 77 121 155q26 20 58 21q42 0 68 -31q19 -20 19 -55q0 -44 -33 -69q-84 -41 -174 -93.5t-186 -132.5q-7 -7 -17 -7q-31 0 -30 31z" />
<glyph unicode="&#xde;" horiz-adv-x="1134" d="M39 -483q0 36 31 36l131 -2v1700q-68 0 -91 -1.5t-40 -3.5q-12 0 -21.5 9.5t-9.5 26.5q0 36 31 36q3 0 50 -2t81 -2q89 0 136 2.5t81 6.5q12 0 21.5 -9.5t9.5 -26.5v-599q87 148 242 148q152 0 248.5 -120t96.5 -315t-95.5 -315t-249.5 -120q-72 0 -136.5 39t-105.5 109 v-563l131 2q12 0 21.5 -9.5t9.5 -26.5q0 -36 -31 -36q-14 0 -27 2q-70 9 -172 8h-111q-128 0 -157 -3t-43 -7q-12 0 -21.5 9.5t-9.5 26.5zM449 401q0 -166 70 -270q63 -94 147 -93q65 0 84.5 76.5t19.5 286.5q0 217 -19 290.5t-85 73.5q-84 0 -147 -93q-70 -104 -70 -271z " />
<glyph unicode="&#xdf;" horiz-adv-x="1322" d="M39 32q0 36 31 36q9 0 49.5 -2.5t81.5 -2.5v901q0 196 110 294q102 90 290 90q145 0 227 -75q75 -70 75 -176q0 -79 -89.5 -182t-89.5 -156q0 -79 134 -146q236 -119 255 -133q137 -99 136 -248q0 -119 -99.5 -193.5t-246.5 -74.5t-247.5 69t-100.5 158q0 113 111 113 q34 0 61 -29t27 -57q0 -39 -20.5 -62t-47.5 -30q31 -46 91.5 -68t132.5 -22q77 0 123.5 35t46.5 98q0 82 -128 152q-119 61 -237 123q-128 85 -128 206q0 70 128 265q61 94 62 198q0 96 -36 136.5t-110 40.5q-87 0 -129 -63q-53 -79 -53 -263v-937q0 -36 -31 -36 q-2 0 -73.5 4.5t-143.5 4.5q-60 0 -87 -1t-44 -2q-12 0 -21.5 9t-9.5 26z" />
<glyph unicode="&#xe0;" horiz-adv-x="904" d="M51 162q0 137 144 210q126 65 320 65v200q0 75 -25.5 105.5t-90.5 30.5q-92 0 -119 -44q55 -22 55 -92q0 -48 -32 -79.5t-79 -31.5q-48 0 -78 31.5t-30 79.5q0 89 90.5 144t192.5 55q193 0 278.5 -92t85.5 -299v-334q0 -53 22 -53q19 0 34 19q29 34 33 37q14 10 25 11 q17 0 34 -17q9 -12 9 -23q0 -29 -22 -44q-44 -34 -87 -48.5t-103 -14.5q-92 0 -136 34q-32 26 -53 84q-72 -65 -137.5 -93.5t-130.5 -28.5q-85 0 -142.5 49.5t-57.5 138.5zM210 1222q0 34 19 54q26 32 72 33q31 0 54 -21q55 -77 120 -153q73 -87 165 -164q10 -10 11 -21 q0 -10 -8.5 -20t-20.5 -10q-10 0 -19 6q-90 77 -188 134q-87 46 -172 92q-32 26 -33 70zM299 188q0 -46 24.5 -73.5t55.5 -27.5q26 0 59.5 17t76.5 58v215q-217 0 -216 -189z" />
<glyph unicode="&#xe1;" horiz-adv-x="904" d="M51 162q0 137 144 210q126 65 320 65v200q0 75 -25.5 105.5t-90.5 30.5q-92 0 -119 -44q55 -22 55 -92q0 -48 -32 -79.5t-79 -31.5q-48 0 -78 31.5t-30 79.5q0 89 90.5 144t192.5 55q193 0 278.5 -92t85.5 -299v-334q0 -53 22 -53q19 0 34 19q29 34 33 37q14 10 25 11 q17 0 34 -17q9 -12 9 -23q0 -29 -22 -44q-44 -34 -87 -48.5t-103 -14.5q-92 0 -136 34q-32 26 -53 84q-72 -65 -137.5 -93.5t-130.5 -28.5q-85 0 -142.5 49.5t-57.5 138.5zM229 954q0 10 10 19q92 77 164 162q60 77 121 155q26 20 58 21q42 0 68 -31q19 -20 19 -55 q0 -44 -33 -69q-84 -41 -174 -93.5t-186 -132.5q-7 -7 -17 -7q-31 0 -30 31zM299 188q0 -46 24.5 -73.5t55.5 -27.5q26 0 59.5 17t76.5 58v215q-217 0 -216 -189z" />
<glyph unicode="&#xe2;" horiz-adv-x="904" d="M51 162q0 137 144 210q126 65 320 65v200q0 75 -25.5 105.5t-90.5 30.5q-92 0 -119 -44q55 -22 55 -92q0 -48 -32 -79.5t-79 -31.5q-48 0 -78 31.5t-30 79.5q0 89 90.5 144t192.5 55q193 0 278.5 -92t85.5 -299v-334q0 -53 22 -53q19 0 34 19q29 34 33 37q14 10 25 11 q17 0 34 -17q9 -12 9 -23q0 -29 -22 -44q-44 -34 -87 -48.5t-103 -14.5q-92 0 -136 34q-32 26 -53 84q-72 -65 -137.5 -93.5t-130.5 -28.5q-85 0 -142.5 49.5t-57.5 138.5zM120 944q0 9 5 14l271 293q26 26 43 26q19 0 42 -26l270 -293q12 -12 -3.5 -25.5t-30.5 -5.5 l-278 178l-280 -178q-14 -9 -26.5 -2.5t-12.5 19.5zM299 188q0 -46 24.5 -73.5t55.5 -27.5q26 0 59.5 17t76.5 58v215q-217 0 -216 -189z" />
<glyph unicode="&#xe3;" horiz-adv-x="904" d="M51 162q0 137 144 210q126 65 320 65v200q0 75 -25.5 105.5t-90.5 30.5q-92 0 -119 -44q55 -22 55 -92q0 -48 -32 -79.5t-79 -31.5q-48 0 -78 31.5t-30 79.5q0 89 90.5 144t192.5 55q193 0 278.5 -92t85.5 -299v-334q0 -53 22 -53q19 0 34 19q29 34 33 37q14 10 25 11 q17 0 34 -17q9 -12 9 -23q0 -29 -22 -44q-44 -34 -87 -48.5t-103 -14.5q-92 0 -136 34q-32 26 -53 84q-72 -65 -137.5 -93.5t-130.5 -28.5q-85 0 -142.5 49.5t-57.5 138.5zM130 944q0 111 49 183.5t119 72.5q53 0 157.5 -72t150.5 -72q43 0 73.5 36t40.5 89q2 19 20 19 q20 0 21 -19q0 -121 -49.5 -191t-131.5 -70q-48 0 -156 72.5t-144 72.5t-67.5 -35t-43.5 -86q-3 -17 -22 -18q-17 0 -17 18zM299 188q0 -46 24.5 -73.5t55.5 -27.5q26 0 59.5 17t76.5 58v215q-217 0 -216 -189z" />
<glyph unicode="&#xe4;" horiz-adv-x="904" d="M51 162q0 137 144 210q126 65 320 65v200q0 75 -25.5 105.5t-90.5 30.5q-92 0 -119 -44q55 -22 55 -92q0 -48 -32 -79.5t-79 -31.5q-48 0 -78 31.5t-30 79.5q0 89 90.5 144t192.5 55q193 0 278.5 -92t85.5 -299v-334q0 -53 22 -53q19 0 34 19q29 34 33 37q14 10 25 11 q17 0 34 -17q9 -12 9 -23q0 -29 -22 -44q-44 -34 -87 -48.5t-103 -14.5q-92 0 -136 34q-32 26 -53 84q-72 -65 -137.5 -93.5t-130.5 -28.5q-85 0 -142.5 49.5t-57.5 138.5zM152 1025q0 43 29.5 73t72.5 30t73 -30t30 -73q0 -44 -30 -74t-73 -30t-72.5 30t-29.5 74zM299 188 q0 -46 24.5 -73.5t55.5 -27.5q26 0 59.5 17t76.5 58v215q-217 0 -216 -189zM517 1025q0 43 30 73t74 30q43 0 72.5 -30t29.5 -73q0 -44 -29.5 -74t-72.5 -30q-44 0 -74 30t-30 74z" />
<glyph unicode="&#xe5;" horiz-adv-x="904" d="M51 162q0 137 144 210q126 65 320 65v200q0 75 -25.5 105.5t-90.5 30.5q-92 0 -119 -44q55 -22 55 -92q0 -48 -32 -79.5t-79 -31.5q-48 0 -78 31.5t-30 79.5q0 89 90.5 144t192.5 55q193 0 278.5 -92t85.5 -299v-334q0 -53 22 -53q19 0 34 19q29 34 33 37q14 10 25 11 q17 0 34 -17q9 -12 9 -23q0 -29 -22 -44q-44 -34 -87 -48.5t-103 -14.5q-92 0 -136 34q-32 26 -53 84q-72 -65 -137.5 -93.5t-130.5 -28.5q-85 0 -142.5 49.5t-57.5 138.5zM214 1139q0 90 63 153.5t153 63.5q89 0 152.5 -63.5t63.5 -153.5t-61.5 -153.5t-154.5 -63.5 q-90 0 -153 63t-63 154zM299 188q0 -46 24.5 -73.5t55.5 -27.5q26 0 59.5 17t76.5 58v215q-217 0 -216 -189zM309 1139q0 -48 36 -84t85 -36t84.5 35t35.5 85q0 49 -34.5 85t-85.5 36q-49 0 -85 -36t-36 -85z" />
<glyph unicode="&#xe6;" horiz-adv-x="1355" d="M51 162q0 137 144 210q126 65 320 65v200q0 75 -25.5 105.5t-90.5 30.5q-51 0 -78 -9.5t-45 -33.5q58 -26 59 -93q0 -48 -32 -79.5t-79 -31.5q-48 0 -78 31.5t-30 79.5q0 89 90.5 144t192.5 55q184 0 268 -82q118 82 273 82q152 0 248.5 -91t96.5 -231q0 -24 -2 -36h-518 l-2 -75q0 -213 53 -297q44 -72 148 -72q96 0 165 44.5t98 128.5q5 17 10 22q9 10 23 10q32 0 32 -31q0 -5 -2 -13q-3 -14 -7 -24q-48 -109 -151 -162q-85 -43 -193 -43q-131 0 -236 58q-85 48 -131 119q-85 -82 -149 -119q-84 -49 -172 -50q-85 0 -142.5 49.5t-57.5 138.5z M299 188q0 -46 24.5 -73.5t55.5 -27.5q69 0 165 104q-10 31 -13 53q-15 72 -16 133q-217 0 -216 -189zM771 550h246q17 41 17 92q0 55 -27 91.5t-82 36.5q-65 0 -103.5 -53.5t-50.5 -166.5z" />
<glyph unicode="&#xe7;" horiz-adv-x="853" d="M73 401q0 193 109.5 314t286.5 121q125 0 221.5 -62t96.5 -165q0 -60 -32.5 -97.5t-80.5 -37.5t-81 33.5t-33 79.5q0 43 30.5 78.5t71.5 35.5q-36 38 -65.5 53.5t-86.5 15.5q-104 0 -137 -79.5t-33 -289.5q0 -207 35 -286t137 -79q80 0 132 42.5t83 128.5q5 17 10 22 q9 10 22 10q32 0 33 -31q0 -5 -2 -13q-3 -14 -7 -24q-49 -113 -128 -162q-68 -43 -169 -43l-42 2v-93q90 -10 158.5 -60.5t68.5 -125.5q0 -109 -108 -177q-87 -55 -240 -80q-38 -5 -38 20q0 20 38 31q89 24 141 70q60 51 60 118q0 130 -152 129q-14 0 -26.5 11.5t-12.5 33.5 q0 10 2 15l32 120q-138 36 -216 147.5t-78 273.5z" />
<glyph unicode="&#xe8;" horiz-adv-x="931" d="M73 401q0 207 135 326q123 109 295 109q162 0 260.5 -91t98.5 -231q0 -24 -2 -36h-519l-1 -77q0 -200 48.5 -283.5t152.5 -83.5q96 0 165 44.5t98 128.5q5 17 10 22q9 10 22 10q32 0 33 -31q0 -5 -2 -13q-3 -14 -7 -24q-48 -109 -152 -162q-85 -43 -193 -43 q-183 0 -305 107q-137 119 -137 328zM239 1222q0 34 19 54q26 32 72 33q31 0 54 -21q55 -77 120 -153q73 -87 165 -164q10 -10 11 -21q0 -10 -8.5 -20t-20.5 -10q-10 0 -19 6q-90 77 -188 134q-87 46 -172 92q-32 26 -33 70zM348 550h246q17 41 17 92q0 55 -27.5 91.5 t-81.5 36.5q-65 0 -103.5 -53.5t-50.5 -166.5z" />
<glyph unicode="&#xe9;" horiz-adv-x="931" d="M73 401q0 207 135 326q123 109 295 109q162 0 260.5 -91t98.5 -231q0 -24 -2 -36h-519l-1 -77q0 -200 48.5 -283.5t152.5 -83.5q96 0 165 44.5t98 128.5q5 17 10 22q9 10 22 10q32 0 33 -31q0 -5 -2 -13q-3 -14 -7 -24q-48 -109 -152 -162q-85 -43 -193 -43 q-183 0 -305 107q-137 119 -137 328zM286 954q0 10 10 19q92 77 164 162q60 77 121 155q26 20 58 21q42 0 68 -31q19 -20 19 -55q0 -44 -33 -69q-84 -41 -174 -93.5t-186 -132.5q-7 -7 -17 -7q-31 0 -30 31zM348 550h246q17 41 17 92q0 55 -27.5 91.5t-81.5 36.5 q-65 0 -103.5 -53.5t-50.5 -166.5z" />
<glyph unicode="&#xea;" horiz-adv-x="931" d="M73 401q0 207 135 326q123 109 295 109q162 0 260.5 -91t98.5 -231q0 -24 -2 -36h-519l-1 -77q0 -200 48.5 -283.5t152.5 -83.5q96 0 165 44.5t98 128.5q5 17 10 22q9 10 22 10q32 0 33 -31q0 -5 -2 -13q-3 -14 -7 -24q-48 -109 -152 -162q-85 -43 -193 -43 q-183 0 -305 107q-137 119 -137 328zM174 944q0 9 5 14l271 293q26 26 43 26q19 0 42 -26l270 -293q12 -12 -3.5 -25.5t-30.5 -5.5l-278 178l-280 -178q-14 -9 -26.5 -2.5t-12.5 19.5zM348 550h246q17 41 17 92q0 55 -27.5 91.5t-81.5 36.5q-65 0 -103.5 -53.5t-50.5 -166.5 z" />
<glyph unicode="&#xeb;" horiz-adv-x="931" d="M73 401q0 207 135 326q123 109 295 109q162 0 260.5 -91t98.5 -231q0 -24 -2 -36h-519l-1 -77q0 -200 48.5 -283.5t152.5 -83.5q96 0 165 44.5t98 128.5q5 17 10 22q9 10 22 10q32 0 33 -31q0 -5 -2 -13q-3 -14 -7 -24q-48 -109 -152 -162q-85 -43 -193 -43 q-183 0 -305 107q-137 119 -137 328zM222 1025q0 43 29.5 73t72.5 30t73 -30t30 -73q0 -44 -30 -74t-73 -30t-72.5 30t-29.5 74zM348 550h246q17 41 17 92q0 55 -27.5 91.5t-81.5 36.5q-65 0 -103.5 -53.5t-50.5 -166.5zM587 1025q0 43 30 73t74 30q43 0 72.5 -30t29.5 -73 q0 -44 -29.5 -74t-72.5 -30q-44 0 -74 30t-30 74z" />
<glyph unicode="&#xec;" horiz-adv-x="636" d="M24 1222q0 34 19 54q26 32 72 33q31 0 54 -21q55 -77 120 -153q73 -87 165 -164q10 -10 11 -21q0 -10 -8.5 -20t-20.5 -10q-10 0 -19 6q-90 77 -188 134q-87 46 -172 92q-32 26 -33 70zM51 29q0 36 31 36l131 -2v676q-68 0 -91 -1.5t-40 -3.5q-12 0 -21.5 9.5t-9.5 26.5 q0 36 31 36q3 0 50 -2t81 -2q113 0 152 2.5t65 6.5q12 0 21.5 -9.5t9.5 -26.5v-712l131 2q12 0 21.5 -9.5t9.5 -26.5q0 -36 -31 -36q-14 0 -27 2q-70 9 -172 8h-111q-128 0 -157 -3t-43 -7q-12 0 -21.5 9.5t-9.5 26.5z" />
<glyph unicode="&#xed;" horiz-adv-x="636" d="M51 29q0 36 31 36l131 -2v676q-68 0 -91 -1.5t-40 -3.5q-12 0 -21.5 9.5t-9.5 26.5q0 36 31 36q3 0 50 -2t81 -2q113 0 152 2.5t65 6.5q12 0 21.5 -9.5t9.5 -26.5v-712l131 2q12 0 21.5 -9.5t9.5 -26.5q0 -36 -31 -36q-14 0 -27 2q-70 9 -172 8h-111q-128 0 -157 -3 t-43 -7q-12 0 -21.5 9.5t-9.5 26.5zM84 954q0 10 10 19q92 77 164 162q60 77 121 155q26 20 58 21q42 0 68 -31q19 -20 19 -55q0 -44 -33 -69q-84 -41 -174 -93.5t-186 -132.5q-7 -7 -17 -7q-31 0 -30 31z" />
<glyph unicode="&#xee;" horiz-adv-x="636" d="M0 942q0 9 5 14l271 293q26 26 43 26q19 0 42 -26l270 -293q12 -12 -3.5 -25.5t-30.5 -5.5l-278 178l-280 -178q-14 -9 -26.5 -2.5t-12.5 19.5zM51 29q0 36 31 36l131 -2v676q-68 0 -91 -1.5t-40 -3.5q-12 0 -21.5 9.5t-9.5 26.5q0 36 31 36q3 0 50 -2t81 -2 q113 0 152 2.5t65 6.5q12 0 21.5 -9.5t9.5 -26.5v-712l131 2q12 0 21.5 -9.5t9.5 -26.5q0 -36 -31 -36q-14 0 -27 2q-70 9 -172 8h-111q-128 0 -157 -3t-43 -7q-12 0 -21.5 9.5t-9.5 26.5z" />
<glyph unicode="&#xef;" horiz-adv-x="636" d="M34 1025q0 43 29.5 73t72.5 30t73 -30t30 -73q0 -44 -30 -74t-73 -30t-72.5 30t-29.5 74zM51 29q0 36 31 36l131 -2v676q-68 0 -91 -1.5t-40 -3.5q-12 0 -21.5 9.5t-9.5 26.5q0 36 31 36q3 0 50 -2t81 -2q113 0 152 2.5t65 6.5q12 0 21.5 -9.5t9.5 -26.5v-712l131 2 q12 0 21.5 -9.5t9.5 -26.5q0 -36 -31 -36q-14 0 -27 2q-70 9 -172 8h-111q-128 0 -157 -3t-43 -7q-12 0 -21.5 9.5t-9.5 26.5zM399 1025q0 43 30 73t74 30q43 0 72.5 -30t29.5 -73q0 -44 -29.5 -74t-72.5 -30q-44 0 -74 30t-30 74z" />
<glyph unicode="&#xf0;" horiz-adv-x="1136" d="M116 350q0 183 109 287q102 97 261 97q79 0 144 -31.5t100 -82.5q-19 133 -53 238.5t-86 194.5l-23 -24q-49 -51 -97 -102q-27 -31 -53 -60q-10 -10 -25 -10q-19 0 -34.5 15t-15.5 34q0 15 10 26q24 19 61.5 53t100.5 97l35 34q-55 75 -116.5 119.5t-113.5 51.5t-52 42 q0 32 43 26q84 -14 160 -51.5t160 -105.5l28 27q75 75 114 122q34 39 36 41q10 10 26 10q19 0 34 -15.5t15 -34.5q0 -15 -10 -25q-24 -19 -60 -51.5t-102 -99.5l-24 -23q143 -135 233.5 -312t90.5 -337q0 -290 -159 -427q-125 -108 -315 -107q-171 0 -296.5 113.5 t-125.5 270.5zM382 352q0 -166 31.5 -243t124.5 -77q118 0 163 84t45 285q0 102 -65 184t-160 82q-79 0 -109 -73t-30 -242z" />
<glyph unicode="&#xf1;" horiz-adv-x="1170" d="M51 29q0 36 31 36l131 -2v676q-68 0 -91 -1.5t-40 -3.5q-12 0 -21.5 9.5t-9.5 26.5q0 36 31 36q3 0 50 -2t81 -2q106 0 147 2.5t70 6.5q12 0 21.5 -9.5t9.5 -26.5v-171q34 90 112 157q87 75 185 75q130 0 194 -85q60 -80 60 -219v-469l131 2q12 0 21.5 -9.5t9.5 -26.5 q0 -36 -31 -36q-14 0 -27 2q-70 9 -172 8h-60q-128 0 -157 -3t-43 -7q-12 0 -21 9.5t-9 26.5q0 36 30 36l81 -2v539q0 80 -16.5 108.5t-64.5 28.5q-63 0 -136 -101q-87 -118 -87 -268v-307l80 2q12 0 21.5 -9.5t9.5 -26.5q0 -36 -31 -36q-2 0 -63.5 5t-84.5 5h-111 q-101 0 -132.5 -2.5t-67.5 -7.5q-12 0 -21.5 9.5t-9.5 26.5zM286 944q0 111 49 183.5t119 72.5q53 0 157.5 -72t150.5 -72q43 0 73.5 36t40.5 89q2 19 20 19q20 0 21 -19q0 -121 -49.5 -191t-131.5 -70q-48 0 -156 72.5t-144 72.5t-67.5 -35t-43.5 -86q-3 -17 -22 -18 q-17 0 -17 18z" />
<glyph unicode="&#xf2;" horiz-adv-x="989" d="M56 401q0 191 125.5 313t313.5 122q186 0 312.5 -121t126.5 -314q0 -191 -125.5 -313t-313.5 -122q-186 0 -312.5 121t-126.5 314zM208 1222q0 34 19 54q26 32 72 33q31 0 54 -21q55 -77 120 -153q73 -87 165 -164q10 -10 11 -21q0 -10 -8.5 -20t-20.5 -10q-10 0 -19 6 q-90 77 -188 134q-87 46 -172 92q-32 26 -33 70zM323 401q0 -227 34 -298t138 -71t138 71t34 298t-34 298t-138 71t-138 -71t-34 -298z" />
<glyph unicode="&#xf3;" horiz-adv-x="989" d="M56 401q0 191 125.5 313t313.5 122q186 0 312.5 -121t126.5 -314q0 -191 -125.5 -313t-313.5 -122q-186 0 -312.5 121t-126.5 314zM308 954q0 10 10 19q92 77 164 162q60 77 121 155q26 20 58 21q42 0 68 -31q19 -20 19 -55q0 -44 -33 -69q-84 -41 -174 -93.5 t-186 -132.5q-7 -7 -17 -7q-31 0 -30 31zM323 401q0 -227 34 -298t138 -71t138 71t34 298t-34 298t-138 71t-138 -71t-34 -298z" />
<glyph unicode="&#xf4;" horiz-adv-x="989" d="M56 401q0 191 125.5 313t313.5 122q186 0 312.5 -121t126.5 -314q0 -191 -125.5 -313t-313.5 -122q-186 0 -312.5 121t-126.5 314zM157 938q0 9 5 14l271 293q26 26 43 26q19 0 42 -26l270 -293q12 -12 -3.5 -25.5t-30.5 -5.5l-278 178l-280 -178q-14 -9 -26.5 -2.5 t-12.5 19.5zM323 401q0 -227 34 -298t138 -71t138 71t34 298t-34 298t-138 71t-138 -71t-34 -298z" />
<glyph unicode="&#xf5;" horiz-adv-x="989" d="M56 401q0 191 125.5 313t313.5 122q186 0 312.5 -121t126.5 -314q0 -191 -125.5 -313t-313.5 -122q-186 0 -312.5 121t-126.5 314zM173 944q0 111 49 183.5t119 72.5q53 0 157.5 -72t150.5 -72q43 0 73.5 36t40.5 89q2 19 20 19q20 0 21 -19q0 -121 -49.5 -191 t-131.5 -70q-48 0 -156 72.5t-144 72.5t-67.5 -35t-43.5 -86q-3 -17 -22 -18q-17 0 -17 18zM323 401q0 -227 34 -298t138 -71t138 71t34 298t-34 298t-138 71t-138 -71t-34 -298z" />
<glyph unicode="&#xf6;" horiz-adv-x="989" d="M56 401q0 191 125.5 313t313.5 122q186 0 312.5 -121t126.5 -314q0 -191 -125.5 -313t-313.5 -122q-186 0 -312.5 121t-126.5 314zM212 1025q0 43 29.5 73t72.5 30t73 -30t30 -73q0 -44 -30 -74t-73 -30t-72.5 30t-29.5 74zM323 401q0 -227 34 -298t138 -71t138 71 t34 298t-34 298t-138 71t-138 -71t-34 -298zM577 1025q0 43 30 73t74 30q43 0 72.5 -30t29.5 -73q0 -44 -29.5 -74t-72.5 -30q-44 0 -74 30t-30 74z" />
<glyph unicode="&#xf7;" horiz-adv-x="1006" d="M102 510q0 20 12 33t28 13q29 -3 87.5 -5.5t132.5 -2.5h287q114 0 153 2.5t67 5.5q39 0 39 -46t-39 -46q-2 0 -64.5 4.5t-155.5 4.5h-287q-118 0 -156.5 -3.5t-63.5 -5.5q-19 0 -29.5 16.5t-10.5 29.5zM391 213q0 49 33 84.5t81 35.5t84 -36t36 -84t-36 -83.5t-84 -35.5 q-46 0 -80 36t-34 83zM391 809q0 49 33 84t81 35t84 -35.5t36 -83.5t-36 -84t-84 -36q-46 0 -80 36t-34 84z" />
<glyph unicode="&#xf8;" horiz-adv-x="989" d="M56 401q0 191 125.5 313t313.5 122q97 0 186 -37l22 44q10 19 34 19q14 0 26 -7q24 -15 24 -39q0 -10 -5 -19l-26 -39q84 -58 131 -149.5t47 -207.5q0 -191 -125.5 -313t-313.5 -122q-96 0 -178 34l-29 -60q-12 -17 -34 -17q-17 0 -27 9q-24 12 -24 36q0 10 5 18l34 53 q-87 58 -136.5 151t-49.5 211zM323 401q0 -140 12 -213l264 461l31 54q-17 38 -48.5 52.5t-86.5 14.5q-104 0 -138 -71t-34 -298zM364 90q20 -32 49 -45t82 -13q104 0 138 71t34 298q1 114 -8 196l-268 -460z" />
<glyph unicode="&#xf9;" horiz-adv-x="1085" d="M-3 770q0 36 30 36q3 0 50.5 -2t81.5 -2q108 0 148.5 2.5t67.5 6.5q12 0 21.5 -9.5t9.5 -26.5v-620q0 -39 17 -67t50 -28q63 0 134.5 122.5t71.5 252.5v304q-68 0 -91 -1.5t-40 -3.5q-12 0 -21.5 9.5t-9.5 26.5q0 36 31 36q3 0 50 -2t81 -2q114 0 152.5 2.5t64.5 6.5 q12 0 21.5 -9.5t9.5 -26.5v-664q0 -53 22 -53q19 0 34 19q29 34 32 37q14 10 26 11q17 0 34 -17q9 -12 9 -23q0 -29 -22 -44q-44 -34 -87 -48.5t-103 -14.5q-106 0 -149.5 44.5t-43.5 122.5v56q-36 -96 -97 -157q-75 -75 -169 -75q-130 0 -192 83t-62 221v466 q-68 0 -91.5 -1.5t-40.5 -3.5q-12 0 -21 9.5t-9 26.5zM211 1226q0 34 19 54q26 32 72 33q31 0 54 -21q55 -77 120 -153q73 -87 165 -164q10 -10 11 -21q0 -10 -8.5 -20t-20.5 -10q-10 0 -19 6q-90 77 -188 134q-87 46 -172 92q-32 26 -33 70z" />
<glyph unicode="&#xfa;" horiz-adv-x="1085" d="M-3 770q0 36 30 36q3 0 50.5 -2t81.5 -2q108 0 148.5 2.5t67.5 6.5q12 0 21.5 -9.5t9.5 -26.5v-620q0 -39 17 -67t50 -28q63 0 134.5 122.5t71.5 252.5v304q-68 0 -91 -1.5t-40 -3.5q-12 0 -21.5 9.5t-9.5 26.5q0 36 31 36q3 0 50 -2t81 -2q114 0 152.5 2.5t64.5 6.5 q12 0 21.5 -9.5t9.5 -26.5v-664q0 -53 22 -53q19 0 34 19q29 34 32 37q14 10 26 11q17 0 34 -17q9 -12 9 -23q0 -29 -22 -44q-44 -34 -87 -48.5t-103 -14.5q-106 0 -149.5 44.5t-43.5 122.5v56q-36 -96 -97 -157q-75 -75 -169 -75q-130 0 -192 83t-62 221v466 q-68 0 -91.5 -1.5t-40.5 -3.5q-12 0 -21 9.5t-9 26.5zM355 952q0 10 10 19q92 77 164 162q60 77 121 155q26 20 58 21q42 0 68 -31q19 -20 19 -55q0 -44 -33 -69q-84 -41 -174 -93.5t-186 -132.5q-7 -7 -17 -7q-31 0 -30 31z" />
<glyph unicode="&#xfb;" horiz-adv-x="1085" d="M-3 770q0 36 30 36q3 0 50.5 -2t81.5 -2q108 0 148.5 2.5t67.5 6.5q12 0 21.5 -9.5t9.5 -26.5v-620q0 -39 17 -67t50 -28q63 0 134.5 122.5t71.5 252.5v304q-68 0 -91 -1.5t-40 -3.5q-12 0 -21.5 9.5t-9.5 26.5q0 36 31 36q3 0 50 -2t81 -2q114 0 152.5 2.5t64.5 6.5 q12 0 21.5 -9.5t9.5 -26.5v-664q0 -53 22 -53q19 0 34 19q29 34 32 37q14 10 26 11q17 0 34 -17q9 -12 9 -23q0 -29 -22 -44q-44 -34 -87 -48.5t-103 -14.5q-106 0 -149.5 44.5t-43.5 122.5v56q-36 -96 -97 -157q-75 -75 -169 -75q-130 0 -192 83t-62 221v466 q-68 0 -91.5 -1.5t-40.5 -3.5q-12 0 -21 9.5t-9 26.5zM207 944q0 9 5 14l271 293q26 26 43 26q19 0 42 -26l270 -293q12 -12 -3.5 -25.5t-30.5 -5.5l-278 178l-280 -178q-14 -9 -26.5 -2.5t-12.5 19.5z" />
<glyph unicode="&#xfc;" horiz-adv-x="1085" d="M-3 770q0 36 30 36q3 0 50.5 -2t81.5 -2q108 0 148.5 2.5t67.5 6.5q12 0 21.5 -9.5t9.5 -26.5v-620q0 -39 17 -67t50 -28q63 0 134.5 122.5t71.5 252.5v304q-68 0 -91 -1.5t-40 -3.5q-12 0 -21.5 9.5t-9.5 26.5q0 36 31 36q3 0 50 -2t81 -2q114 0 152.5 2.5t64.5 6.5 q12 0 21.5 -9.5t9.5 -26.5v-664q0 -53 22 -53q19 0 34 19q29 34 32 37q14 10 26 11q17 0 34 -17q9 -12 9 -23q0 -29 -22 -44q-44 -34 -87 -48.5t-103 -14.5q-106 0 -149.5 44.5t-43.5 122.5v56q-36 -96 -97 -157q-75 -75 -169 -75q-130 0 -192 83t-62 221v466 q-68 0 -91.5 -1.5t-40.5 -3.5q-12 0 -21 9.5t-9 26.5zM224 1025q0 43 29.5 73t72.5 30t73 -30t30 -73q0 -44 -30 -74t-73 -30t-72.5 30t-29.5 74zM589 1025q0 43 30 73t74 30q43 0 72.5 -30t29.5 -73q0 -44 -29.5 -74t-72.5 -30q-44 0 -74 30t-30 74z" />
<glyph unicode="&#xfd;" horiz-adv-x="822" d="M-130 -391q0 53 28.5 84.5t75.5 31.5q39 0 72 -28t33 -76q0 -65 -55 -92q17 -12 41 -12q61 0 112 63q61 75 154 283l62 139l-321 737l-92 -2q-12 0 -21.5 9.5t-9.5 26.5q0 36 31 36q20 -3 71 -6.5t94 -3.5h116q80 0 112.5 3.5t53.5 6.5q12 0 21 -9.5t9 -26.5 q0 -36 -30 -36l-86 2l186 -430l190 430l-96 -2q-12 0 -21 9.5t-9 26.5q0 36 30 36q19 -3 60 -6.5t72 -3.5q58 0 84.5 3.5t44.5 6.5q12 0 21.5 -9.5t9.5 -26.5q0 -36 -31 -36l-92 2l-392 -893q-94 -213 -170 -302.5t-170 -89.5q-84 0 -136 45t-52 110zM332 954q0 10 10 19 q92 77 164 162q60 77 121 155q26 20 58 21q42 0 68 -31q19 -20 19 -55q0 -44 -33 -69q-84 -41 -174 -93.5t-186 -132.5q-7 -7 -17 -7q-31 0 -30 31z" />
<glyph unicode="&#xfe;" horiz-adv-x="1186" d="M94 29q0 36 31 36l140 -2v1188l-140 -2q-12 0 -21.5 9.5t-9.5 26.5q0 36 31 36q26 -3 93 -6.5t115 -3.5h128q101 0 141.5 3.5t66.5 6.5q12 0 21.5 -9.5t9.5 -26.5q0 -36 -31 -36l-140 2v-188l140 2q218 0 337.5 -103.5t119.5 -278.5q0 -176 -118.5 -281t-338.5 -105h-140 v-234l140 2q12 0 21.5 -9.5t9.5 -26.5q0 -36 -31 -36q-26 3 -93 6.5t-115 3.5h-128q-101 0 -143 -3t-65 -7q-12 0 -21.5 9.5t-9.5 26.5zM529 372h108q116 0 161 67.5t45 243.5q0 172 -45 239.5t-161 67.5h-108v-618z" />
<glyph unicode="&#xff;" horiz-adv-x="822" d="M-130 -391q0 53 28.5 84.5t75.5 31.5q39 0 72 -28t33 -76q0 -65 -55 -92q17 -12 41 -12q61 0 112 63q61 75 154 283l62 139l-321 737l-92 -2q-12 0 -21.5 9.5t-9.5 26.5q0 36 31 36q20 -3 71 -6.5t94 -3.5h116q80 0 112.5 3.5t53.5 6.5q12 0 21 -9.5t9 -26.5 q0 -36 -30 -36l-86 2l186 -430l190 430l-96 -2q-12 0 -21 9.5t-9 26.5q0 36 30 36q19 -3 60 -6.5t72 -3.5q58 0 84.5 3.5t44.5 6.5q12 0 21.5 -9.5t9.5 -26.5q0 -36 -31 -36l-92 2l-392 -893q-94 -213 -170 -302.5t-170 -89.5q-84 0 -136 45t-52 110zM234 1025q0 43 29.5 73 t72.5 30t73 -30t30 -73q0 -44 -30 -74t-73 -30t-72.5 30t-29.5 74zM599 1025q0 43 30 73t74 30q43 0 72.5 -30t29.5 -73q0 -44 -29.5 -74t-72.5 -30q-44 0 -74 30t-30 74z" />
<glyph unicode="&#x152;" horiz-adv-x="1802" d="M89 657q0 290 161 475.5t390 185.5q43 0 154 -3.5t170 -3.5l603 3q26 0 52 2.5t62 6.5q12 0 21.5 -9.5t9.5 -26.5v-63q0 -70 2.5 -125t7.5 -123q0 -31 -32 -31q-17 0 -26 9t-9 22q0 130 -44 193q-49 70 -159 70h-283v-515h133q160 0 161 157q0 31 27 30q27 0 27 -30 q0 -3 -1.5 -77.5t-1.5 -117.5q0 -58 1 -106.5t2 -87.5q0 -31 -27 -31t-27 31q0 77 -42 117t-119 40h-133v-574h335q109 0 158 70q44 63 45 193q0 31 34 31q32 0 32 -31q0 -32 -1 -65q-9 -164 -9 -183v-63q0 -36 -31 -36q-17 0 -36 2q-72 7 -78 7l-654 3q-236 -7 -324 -6 q-230 0 -387 180q-164 188 -164 480zM381 657q0 -319 78 -456q72 -126 229 -126q97 0 139 1t78 4v1154q-39 2 -112 3.5t-105 1.5q-154 0 -227 -126q-80 -140 -80 -456z" />
<glyph unicode="&#x153;" horiz-adv-x="1525" d="M56 401q0 191 125.5 313t313.5 122q183 0 305 -114q60 55 142 84.5t169 29.5q152 0 248.5 -91t96.5 -231q0 -24 -2 -36h-519l-1 -77q0 -212 52 -295q46 -72 149 -72q96 0 165 44.5t98 128.5q5 17 10 22q9 10 22 10q32 0 33 -31q0 -5 -2 -13q-3 -14 -7 -24 q-48 -109 -152 -162q-85 -43 -193 -43q-186 0 -312 113q-121 -113 -302 -113q-186 0 -312.5 121t-126.5 314zM323 401q0 -227 34 -298t138 -71t138 71t34 298t-34 298t-138 71t-138 -71t-34 -298zM942 550h246q17 41 17 92q0 55 -27.5 91.5t-81.5 36.5q-65 0 -103.5 -53.5 t-50.5 -166.5z" />
<glyph unicode="&#x178;" horiz-adv-x="1061" d="M-90 1285q0 36 30 36q26 -3 93.5 -6.5t114.5 -3.5h140q101 0 142 3.5t67 6.5q12 0 21 -9.5t9 -26.5q0 -36 -30 -36l-130 2l270 -510l230 435q12 22 12 39q0 36 -32 36l-79 -2q-12 0 -21.5 9.5t-9.5 26.5q0 36 31 36q22 -3 76 -6.5t96 -3.5h11q111 0 134.5 3.5t37.5 6.5 q12 0 21.5 -9.5t9.5 -26.5q0 -36 -31 -36l-65 2q-65 0 -114 -92l-268 -504v-592l140 2q12 0 21.5 -9.5t9.5 -26.5q0 -36 -31 -36q-26 3 -93.5 6.5t-114.5 3.5h-128q-101 0 -143 -3t-66 -7q-12 0 -21 9.5t-9 26.5q0 36 30 36l140 -2v541l-343 647l-128 -2q-12 0 -21 9.5 t-9 26.5zM340 1536q0 43 29.5 73t72.5 30t73 -30t30 -73q0 -44 -30 -74t-73 -30t-72.5 30t-29.5 74zM705 1536q0 43 30 73t74 30q43 0 72.5 -30t29.5 -73q0 -44 -29.5 -74t-72.5 -30q-44 0 -74 30t-30 74z" />
<glyph unicode="&#x2c6;" horiz-adv-x="896" d="M84 1203q0 9 5 14l271 293q26 26 43 26q19 0 42 -26l270 -293q12 -12 -3.5 -25.5t-30.5 -5.5l-278 178l-280 -178q-14 -9 -26.5 -2.5t-12.5 19.5z" />
<glyph unicode="&#x2dc;" horiz-adv-x="786" d="M79 1289q0 111 49 183.5t119 72.5q53 0 157.5 -72t150.5 -72q43 0 73.5 36t40.5 89q2 19 20 19q20 0 21 -19q0 -121 -49.5 -191t-131.5 -70q-48 0 -156 72.5t-144 72.5t-67.5 -35t-43.5 -86q-3 -17 -22 -18q-17 0 -17 18z" />
<glyph unicode="&#x2000;" horiz-adv-x="934" />
<glyph unicode="&#x2001;" horiz-adv-x="1869" />
<glyph unicode="&#x2002;" horiz-adv-x="934" />
<glyph unicode="&#x2003;" horiz-adv-x="1869" />
<glyph unicode="&#x2004;" horiz-adv-x="623" />
<glyph unicode="&#x2005;" horiz-adv-x="467" />
<glyph unicode="&#x2006;" horiz-adv-x="311" />
<glyph unicode="&#x2007;" horiz-adv-x="311" />
<glyph unicode="&#x2008;" horiz-adv-x="233" />
<glyph unicode="&#x2009;" horiz-adv-x="373" />
<glyph unicode="&#x200a;" horiz-adv-x="103" />
<glyph unicode="&#x2010;" horiz-adv-x="960" d="M171 510q0 20 12 33t27 13q29 -3 88 -5.5t132 -2.5h101q114 0 153.5 2.5t66.5 5.5q39 0 39 -46t-39 -46q-2 0 -64 4.5t-156 4.5h-101q-118 0 -156 -3.5t-64 -5.5q-19 0 -29 16.5t-10 29.5z" />
<glyph unicode="&#x2011;" horiz-adv-x="960" d="M171 510q0 20 12 33t27 13q29 -3 88 -5.5t132 -2.5h101q114 0 153.5 2.5t66.5 5.5q39 0 39 -46t-39 -46q-2 0 -64 4.5t-156 4.5h-101q-118 0 -156 -3.5t-64 -5.5q-19 0 -29 16.5t-10 29.5z" />
<glyph unicode="&#x2012;" horiz-adv-x="960" d="M171 510q0 20 12 33t27 13q29 -3 88 -5.5t132 -2.5h101q114 0 153.5 2.5t66.5 5.5q39 0 39 -46t-39 -46q-2 0 -64 4.5t-156 4.5h-101q-118 0 -156 -3.5t-64 -5.5q-19 0 -29 16.5t-10 29.5z" />
<glyph unicode="&#x2013;" horiz-adv-x="1075" d="M-2 473v75h1077v-75h-1077z" />
<glyph unicode="&#x2014;" horiz-adv-x="1365" d="M-2 473v75h1367v-75h-1367z" />
<glyph unicode="&#x2018;" horiz-adv-x="549" d="M133 1181q0 67 42 117t115 50q65 0 99 -36t34 -92q0 -43 -33 -76t-76 -33q-41 0 -68.5 25.5t-27.5 64.5q-7 -19 -6 -49q0 -49 23.5 -114t71.5 -133q12 -19 12 -33q0 -22 -22 -22q-15 0 -26 12q-77 97 -107.5 171.5t-30.5 147.5z" />
<glyph unicode="&#x2019;" horiz-adv-x="549" d="M126 1220q0 56 34.5 92t98.5 36q73 0 118 -53q39 -46 39 -114q0 -77 -29 -147t-109 -172q-10 -12 -25 -12q-22 0 -23 22q0 15 12 33q48 67 72 132.5t24 116.5q0 29 -7 47q0 -39 -27.5 -64.5t-67.5 -25.5q-43 0 -76.5 33.5t-33.5 75.5z" />
<glyph unicode="&#x201a;" horiz-adv-x="549" d="M133 101q0 56 34 92t99 36q73 0 118 -53q39 -47 39 -115q0 -77 -29 -146.5t-109 -172.5q-10 -12 -26 -12q-22 0 -22 23q0 15 12 32q48 67 72 132.5t24 116.5q0 29 -7 48q0 -39 -27.5 -65t-68.5 -26q-43 0 -76 33.5t-33 76.5z" />
<glyph unicode="&#x201c;" horiz-adv-x="921" d="M133 1181q0 67 42 117t115 50q65 0 99 -36t34 -92q0 -43 -33 -76t-76 -33q-41 0 -68.5 25.5t-27.5 64.5q-7 -19 -6 -49q0 -49 23.5 -114t71.5 -133q12 -19 12 -33q0 -22 -22 -22q-15 0 -26 12q-77 97 -107.5 171.5t-30.5 147.5zM522 1181q0 67 42 117t115 50q65 0 99 -36 t34 -92q0 -43 -33 -76t-76 -33q-41 0 -68 25.5t-27 64.5q-7 -19 -7 -49q0 -49 24 -114t71 -133q12 -19 12 -33q0 -22 -22 -22q-15 0 -26 12q-77 97 -107.5 171.5t-30.5 147.5z" />
<glyph unicode="&#x201d;" horiz-adv-x="921" d="M109 1220q0 56 34 92t99 36q73 0 118 -53q39 -46 39 -114q0 -77 -29 -147t-109 -172q-10 -12 -25 -12q-22 0 -23 22q0 15 12 33q48 67 72 132.5t24 116.5q0 29 -7 47q0 -39 -27.5 -64.5t-68.5 -25.5q-43 0 -76 33.5t-33 75.5zM498 1220q0 56 34.5 92t98.5 36 q73 0 118 -53q39 -46 39 -114q0 -77 -29 -147t-109 -172q-10 -12 -25 -12q-22 0 -23 22q0 15 12 33q48 67 72 132.5t24 116.5q0 29 -7 47q0 -39 -27 -64.5t-68 -25.5q-43 0 -76.5 33.5t-33.5 75.5z" />
<glyph unicode="&#x201e;" horiz-adv-x="921" d="M133 101q0 56 34 92t99 36q73 0 118 -53q39 -47 39 -115q0 -77 -29 -146.5t-109 -172.5q-10 -12 -26 -12q-22 0 -22 23q0 15 12 32q48 67 72 132.5t24 116.5q0 29 -7 48q0 -39 -27.5 -65t-68.5 -26q-43 0 -76 33.5t-33 76.5zM522 101q0 56 34.5 92t98.5 36q73 0 118 -53 q39 -47 39 -115q0 -77 -29 -146.5t-109 -172.5q-10 -12 -25 -12q-22 0 -23 23q0 15 12 32q48 67 72 132.5t24 116.5q0 29 -7 48q0 -39 -27.5 -65t-68.5 -26q-43 0 -76 33.5t-33 76.5z" />
<glyph unicode="&#x2022;" horiz-adv-x="663" d="M143 519q0 79 54.5 133.5t133.5 54.5q80 0 135 -55t55 -133q0 -80 -55 -135t-135 -55q-79 0 -133.5 55t-54.5 135z" />
<glyph unicode="&#x2026;" horiz-adv-x="2304" d="M246 109q0 53 37 90.5t92 37.5t91.5 -36.5t36.5 -91.5t-35.5 -92t-92.5 -37q-55 0 -92 37.5t-37 91.5zM1014 109q0 53 37 90.5t92 37.5t91.5 -36.5t36.5 -91.5t-35.5 -92t-92.5 -37q-55 0 -92 37.5t-37 91.5zM1782 109q0 53 37 90.5t92 37.5t91.5 -36.5t36.5 -91.5 t-35.5 -92t-92.5 -37q-55 0 -92 37.5t-37 91.5z" />
<glyph unicode="&#x202f;" horiz-adv-x="373" />
<glyph unicode="&#x2039;" horiz-adv-x="1024" d="M195 548q0 15 20 29l630 416q14 9 27 9q19 0 19 -17q0 -12 -15 -28l-357 -409l357 -408q19 -17 18 -32q0 -17 -18 -18q-10 0 -31 12l-630 417q-20 14 -20 29z" />
<glyph unicode="&#x203a;" horiz-adv-x="1024" d="M130 108q0 15 18 32l357 408l-357 409q-15 14 -15 28q0 17 21 17q12 0 25 -9l630 -416q20 -14 20 -29t-20 -29l-630 -417q-17 -12 -31 -12q-19 0 -18 18z" />
<glyph unicode="&#x205f;" horiz-adv-x="467" />
<glyph unicode="&#x2122;" horiz-adv-x="1954" d="M46 1087q0 2 3.5 49.5t3.5 95.5v50q0 32 29 32l102 -7h432l103 7q27 0 27 -32v-50q0 -51 2.5 -85t5.5 -60q0 -27 -29 -27q-31 0 -30 27q0 99 -28.5 132.5t-108.5 33.5h-58v-611l118 1q27 0 27 -32t-27 -32q-12 0 -24 1q-61 9 -155 9h-77q-90 0 -124.5 -4.5t-54.5 -5.5 q-27 0 -28 32q0 32 28 32l117 -1v611h-58q-80 0 -108 -33.5t-28 -132.5q0 -27 -31 -27q-29 0 -29 27zM831 614q0 32 27 33l103 -2v608l-103 -2q-27 0 -27 32t27 33q19 -3 54 -6t80 -3h37l55 2q17 0 25 -9q5 -5 19 -30l224 -463l194 459q12 27 19 34t20 7h105q99 0 130.5 2.5 t51.5 6.5q27 0 28 -33q0 -32 -28 -32l-119 2v-608l119 2q27 0 28 -33q0 -32 -28 -32q-26 3 -96.5 6t-155.5 3q-68 0 -92 -3.5t-41 -5.5q-27 0 -28 32q0 32 28 33l71 -2v485l-234 -548q-9 -24 -37 -24q-14 0 -24 9q-5 3 -12 17l-225 462v-401l56 2q27 0 27 -33q0 -32 -27 -32 q-20 3 -41.5 6t-45.5 3q-72 0 -95.5 -3.5t-41.5 -5.5q-27 0 -27 32z" />
<glyph unicode="&#x25fc;" horiz-adv-x="810" d="M0 0v811h811v-811h-811z" />
</font>
</defs>
</svg>
